<?xml version="1.0" encoding="UTF-8"?>
<svg version="1.1" xmlns="http://www.w3.org/2000/svg" viewBox="24 50 800 800" width="100%" height="100%">
  <circle cx="424" cy="450" r="400" fill="#000000" />
  <path d="M0 0 C1.13029129 0.02933624 1.13029129 0.02933624 2.28341675 0.05926514 C4.43132177 0.11631589 6.578915 0.18012712 8.7265625 0.24609375 C10.61109131 0.30108032 10.61109131 0.30108032 12.53369141 0.35717773 C15.375 0.5625 15.375 0.5625 16.375 1.5625 C18.30690788 1.87433668 20.24815251 2.12856108 22.19140625 2.359375 C23.41827148 2.51059814 24.64513672 2.66182129 25.90917969 2.81762695 C26.56543335 2.89776031 27.22168701 2.97789368 27.89782715 3.06045532 C48.426476 5.59720364 68.27853803 9.73757087 88.17675781 15.4152832 C89.74055176 15.85553833 89.74055176 15.85553833 91.3359375 16.3046875 C92.26196777 16.5713623 93.18799805 16.83803711 94.14208984 17.11279297 C96.40079594 17.80585286 96.40079594 17.80585286 98.375 16.5625 C100.375 17.89583333 102.375 19.22916667 104.375 20.5625 C106.09373849 21.30866684 107.82937953 22.01631096 109.57421875 22.69921875 C110.61143066 23.10841553 111.64864258 23.5176123 112.71728516 23.93920898 C113.82120605 24.37177002 114.92512695 24.80433105 116.0625 25.25 C125.93309075 29.15425072 135.68043283 33.24234418 145.375 37.5625 C149.3389597 39.31984687 153.05306976 40.90766208 157.375 41.5625 C157.045 42.2225 156.715 42.8825 156.375 43.5625 C157.52097656 44.16578125 158.66695312 44.7690625 159.84765625 45.390625 C161.37763714 46.19785418 162.9075832 47.00514936 164.4375 47.8125 C165.56575195 48.40611328 165.56575195 48.40611328 166.71679688 49.01171875 C179.75744599 55.89898798 179.75744599 55.89898798 184.125 59.375 C187.14420978 61.70862166 190.24714064 63.77129854 193.4921875 65.77734375 C199.13862051 69.34768891 204.46059804 73.23681491 209.75 77.3125 C210.65903076 78.00915771 211.56806152 78.70581543 212.50463867 79.42358398 C221.82808263 86.61094008 230.72460817 94.20702605 239.53515625 102.01171875 C242.08748259 104.16304265 244.77981405 106.09726684 247.515625 108.0078125 C249.83564795 109.94766362 251.49976591 112.19139395 253.375 114.5625 C255.12427305 116.35463426 256.89651691 118.12454835 258.6875 119.875 C263.13686667 124.27308137 267.32524207 128.79662634 271.375 133.5625 C272.26452965 134.57778364 273.15525986 135.59201608 274.046875 136.60546875 C284.20058511 148.2065977 293.56966915 160.3251649 301.75390625 173.40234375 C303.26431869 175.84170185 303.26431869 175.84170185 306.375 176.5625 C306.48352295 177.28727539 306.5920459 178.01205078 306.70385742 178.75878906 C307.42538922 181.77300192 308.49242149 183.7889801 310.11328125 186.421875 C310.68095215 187.36144043 311.24862305 188.30100586 311.83349609 189.26904297 C312.44531738 190.27338379 313.05713867 191.27772461 313.6875 192.3125 C318.97425154 201.16483068 323.80890151 210.13130916 328.25 219.4375 C328.76731689 220.51870117 329.28463379 221.59990234 329.81762695 222.71386719 C333.375 230.2761046 333.375 230.2761046 333.375 232.5625 C334.035 232.8925 334.695 233.2225 335.375 233.5625 C337.40377063 237.14268346 338.49131052 240.9416785 339.63671875 244.87109375 C340.87730471 249.02416377 342.23170214 253.12504434 343.64453125 257.22265625 C354.15314615 287.71452904 360.66462749 318.37774959 363.375 350.5625 C363.48714844 351.86960937 363.59929688 353.17671875 363.71484375 354.5234375 C366.19048149 389.04671446 364.21659309 424.49290512 356.7421875 458.32177734 C356.34112328 460.7692291 356.31390936 463.08669286 356.375 465.5625 C355.715 465.5625 355.055 465.5625 354.375 465.5625 C354.23964844 467.16158203 354.23964844 467.16158203 354.1015625 468.79296875 C353.35931212 474.68312635 351.52841991 480.22843399 349.75 485.875 C349.39099609 487.02419922 349.03199219 488.17339844 348.66210938 489.35742188 C341.73772292 511.27853948 333.01853075 532.18900823 322.375 552.5625 C321.93671875 553.40329102 321.4984375 554.24408203 321.046875 555.11035156 C314.21453262 568.13215795 306.77779627 580.49465429 298.375 592.5625 C299.365 592.8925 300.355 593.2225 301.375 593.5625 C301.375 594.2225 301.375 594.8825 301.375 595.5625 C299.42659493 597.30214739 297.99280744 598.44112856 295.40527344 598.94946289 C292.85231546 599.72032358 292.17977493 600.66017299 290.640625 602.80859375 C290.15335938 603.47584473 289.66609375 604.1430957 289.1640625 604.83056641 C288.65617188 605.54647949 288.14828125 606.26239258 287.625 607 C286.5479597 608.47605251 285.4698363 609.95131532 284.390625 611.42578125 C283.87048828 612.1420166 283.35035156 612.85825195 282.81445312 613.59619141 C268.64165407 632.95638876 251.96594843 651.21174045 234.015625 667.10888672 C232.89937256 668.09789967 231.7875429 669.09192202 230.6796875 670.09033203 C170.42259949 724.38588639 93.82079604 758.04855995 13.375 766.5625 C12.54426468 766.65096191 11.71352936 766.73942383 10.85762024 766.83056641 C4.06302092 767.50334916 -2.66672047 767.73656233 -9.4921875 767.765625 C-10.59705002 767.77263931 -11.70191254 767.77965363 -12.84025574 767.78688049 C-16.39354565 767.80431317 -19.94666887 767.81073445 -23.5 767.8125 C-25.32094681 767.81351212 -25.32094681 767.81351212 -27.17868042 767.81454468 C-45.20257569 767.79861264 -62.78903687 767.34361968 -80.625 764.5625 C-82.44475342 764.28913818 -82.44475342 764.28913818 -84.30126953 764.01025391 C-99.31843179 761.71716254 -114.04104933 758.83053039 -128.625 754.5625 C-128.625 755.2225 -128.625 755.8825 -128.625 756.5625 C-129.285 756.5625 -129.945 756.5625 -130.625 756.5625 C-130.625 755.9025 -130.625 755.2425 -130.625 754.5625 C-136.10926135 752.23116633 -136.10926135 752.23116633 -141.9375 751.5625 C-144.625 751.5625 -144.625 751.5625 -146.0625 750.1875 C-146.578125 749.65125 -147.09375 749.115 -147.625 748.5625 C-149.95296445 747.87732088 -152.28729293 747.21366398 -154.625 746.5625 C-159.52873619 744.70627526 -164.35461242 742.65763098 -169.1875 740.625 C-169.86953491 740.33959351 -170.55156982 740.05418701 -171.25427246 739.76013184 C-183.01355648 734.8276641 -194.46809177 729.41904517 -205.75683594 723.47949219 C-207.76907473 722.43994935 -207.76907473 722.43994935 -210.625 721.5625 C-212.30074103 720.24058943 -213.96612433 718.90551417 -215.625 717.5625 C-217.59703205 716.2486861 -219.59834725 714.97788273 -221.625 713.75 C-222.635625 713.12480469 -223.64625 712.49960937 -224.6875 711.85546875 C-227.9463095 710.42107255 -229.29960779 710.46829926 -232.625 711.5625 C-232.625 710.9025 -232.625 710.2425 -232.625 709.5625 C-231.965 709.2325 -231.305 708.9025 -230.625 708.5625 C-233.265 707.2425 -235.905 705.9225 -238.625 704.5625 C-238.625 703.9025 -238.625 703.2425 -238.625 702.5625 C-239.20967041 702.28269287 -239.79434082 702.00288574 -240.39672852 701.71459961 C-244.00852131 699.84716779 -247.24490015 697.46616404 -250.5625 695.125 C-251.31450684 694.59511475 -252.06651367 694.06522949 -252.84130859 693.51928711 C-258.78784476 689.27401245 -264.35663698 684.70288305 -269.87109375 679.91796875 C-273.54327443 676.7770823 -277.28411648 673.73294176 -281.625 671.5625 C-282.45 670.5725 -283.275 669.5825 -284.125 668.5625 C-291.27451974 660.03285417 -291.27451974 660.03285417 -300.625 654.5625 C-301.62859737 652.89799704 -302.62766794 651.23076453 -303.625 649.5625 C-305.69557396 647.13798178 -307.91458387 644.85929066 -310.125 642.5625 C-319.89536153 632.23429981 -328.82613115 621.47289319 -337.38696289 610.12158203 C-337.9102417 609.42790527 -338.43352051 608.73422852 -338.97265625 608.01953125 C-339.43679932 607.40053955 -339.90094238 606.78154785 -340.37915039 606.14379883 C-341.67948763 604.42946147 -341.67948763 604.42946147 -343.625 602.5625 C-344.67200171 600.99634785 -345.68819052 599.40950523 -346.6875 597.8125 C-347.60982422 596.35457031 -347.60982422 596.35457031 -348.55078125 594.8671875 C-349.63194082 593.14466209 -350.71224362 591.42157082 -351.78271484 589.69238281 C-352.97314918 587.76963482 -354.17369711 585.85347087 -355.375 583.9375 C-355.93973022 583.01372559 -355.93973022 583.01372559 -356.51586914 582.07128906 C-358.77914605 578.3881504 -358.77914605 578.3881504 -362.625 576.5625 C-362.295 575.9025 -361.965 575.2425 -361.625 574.5625 C-362.59335085 572.38486126 -362.59335085 572.38486126 -364.08203125 569.984375 C-364.88543945 568.61345703 -364.88543945 568.61345703 -365.70507812 567.21484375 C-366.56262695 565.77818359 -366.56262695 565.77818359 -367.4375 564.3125 C-370.71315466 558.80155971 -373.72407558 553.71787431 -375.625 547.5625 C-376.285 547.2325 -376.945 546.9025 -377.625 546.5625 C-378.6953125 544.56640625 -378.6953125 544.56640625 -379.75 542.125 C-380.10320312 541.32191406 -380.45640625 540.51882813 -380.8203125 539.69140625 C-381.625 537.5625 -381.625 537.5625 -381.625 535.5625 C-382.615 535.8925 -383.605 536.2225 -384.625 536.5625 C-384.13 534.0875 -384.13 534.0875 -383.625 531.5625 C-384.285 531.2325 -384.945 530.9025 -385.625 530.5625 C-386.40625 528.56640625 -386.40625 528.56640625 -387.125 526.125 C-388.19816512 522.46867965 -388.19816512 522.46867965 -390.625 519.5625 C-393.01432765 515.97850853 -393.625 513.83054999 -393.625 509.5625 C-394.09348851 507.89827421 -394.61420154 506.24851559 -395.1640625 504.609375 C-395.6593042 503.11120239 -395.6593042 503.11120239 -396.16455078 501.58276367 C-396.52274902 500.50357666 -396.88094727 499.42438965 -397.25 498.3125 C-405.73266529 472.08295939 -412.30788148 444.92236151 -414.40307617 417.34106445 C-414.53754943 415.45987845 -414.53754943 415.45987845 -415.625 413.5625 C-415.68555279 412.02590521 -415.68532573 410.48665244 -415.65234375 408.94921875 C-415.64009766 408.03076172 -415.62785156 407.11230469 -415.61523438 406.16601562 C-415.58028863 404.23364512 -415.54127582 402.30134357 -415.49804688 400.36914062 C-415.37970423 393.74004634 -415.37970423 393.74004634 -417.625 387.5625 C-416.965 387.5625 -416.305 387.5625 -415.625 387.5625 C-415.65980469 386.42941406 -415.69460938 385.29632813 -415.73046875 384.12890625 C-416.84539678 329.26989635 -403.90952432 274.0533867 -380.625 224.5625 C-380.27083008 223.8096875 -379.91666016 223.056875 -379.55175781 222.28125 C-377.34856525 217.65125726 -375.02237344 213.09461901 -372.625 208.5625 C-372.16448242 207.68932129 -371.70396484 206.81614258 -371.22949219 205.91650391 C-369.68454148 203.00096831 -368.12622072 200.09300806 -366.5625 197.1875 C-366.07982666 196.28362549 -365.59715332 195.37975098 -365.09985352 194.44848633 C-362.10990361 188.95522873 -358.82335464 183.82911907 -355.18041992 178.74609375 C-353.44534856 176.31029431 -351.86437969 173.80579108 -350.3125 171.25 C-346.17442913 164.68104445 -341.43412722 158.64597008 -336.625 152.5625 C-335.93148437 151.67304688 -335.23796875 150.78359375 -334.5234375 149.8671875 C-330.46735141 144.71224143 -326.20900771 139.79459453 -321.79296875 134.9453125 C-317.80504418 130.5621882 -313.87814109 126.13695932 -310.1875 121.5 C-307.55864324 118.4864325 -304.76721169 116.00070658 -301.73046875 113.4140625 C-299.60119202 111.54156311 -297.61202996 109.58466408 -295.625 107.5625 C-291.78975474 103.68274513 -287.77982768 100.0951405 -283.625 96.5625 C-283.11179199 96.12437988 -282.59858398 95.68625977 -282.06982422 95.23486328 C-280.34000557 93.75862541 -278.60800963 92.28499026 -276.875 90.8125 C-276.04222534 90.10420044 -276.04222534 90.10420044 -275.19262695 89.3815918 C-272.39847468 87.01756912 -269.58418039 84.717243 -266.625 82.5625 C-266.955 81.9025 -267.285 81.2425 -267.625 80.5625 C-266.5421875 80.42908203 -266.5421875 80.42908203 -265.4375 80.29296875 C-262.07019471 79.41840474 -260.33308775 78.05517184 -257.625 75.875 C-251.91021204 71.45064803 -246.01700036 67.37802378 -240 63.375 C-239.12988281 62.79339111 -238.25976562 62.21178223 -237.36328125 61.61254883 C-232.15737446 58.15912065 -226.88567382 54.90781853 -221.44775391 51.83081055 C-220.54549072 51.20299683 -220.54549072 51.20299683 -219.625 50.5625 C-219.625 49.9025 -219.625 49.2425 -219.625 48.5625 C-218.54605469 48.4078125 -218.54605469 48.4078125 -217.4453125 48.25 C-214.31807965 47.48768285 -212.20852881 46.28535625 -209.5 44.5625 C-206.81627583 42.86579901 -204.64729222 41.56993074 -201.625 40.5625 C-200.10515301 39.86510464 -198.59440357 39.14775977 -197.08984375 38.41796875 C-195.75083008 37.77311523 -195.75083008 37.77311523 -194.38476562 37.11523438 C-192.53000724 36.21801907 -190.67582241 35.31961694 -188.82226562 34.41992188 C-182.84550377 31.54475338 -176.81638298 28.94096358 -170.625 26.5625 C-171.615 25.5725 -171.615 25.5725 -172.625 24.5625 C-171.42875 24.500625 -170.2325 24.43875 -169 24.375 C-163.21850468 23.76739062 -158.04666872 21.69087588 -152.6640625 19.62109375 C-149.625 18.5625 -149.625 18.5625 -146.625 18.5625 C-146.295 17.9025 -145.965 17.2425 -145.625 16.5625 C-143.48551933 15.88622737 -141.3090532 15.32692575 -139.125 14.8125 C-137.65624353 14.4635689 -136.18749399 14.11460862 -134.71875 13.765625 C-133.90664063 13.57548828 -133.09453125 13.38535156 -132.2578125 13.18945312 C-129.44673245 12.52004905 -126.64539822 11.81717927 -123.84375 11.109375 C-82.81069807 0.83559024 -42.10743037 -1.16081853 0 0 Z M-391.625 514.5625 C-390.625 516.5625 -390.625 516.5625 -390.625 516.5625 Z M295.375 595.5625 C296.375 597.5625 296.375 597.5625 296.375 597.5625 Z " fill="#080A0E" transform="translate(450.625,47.4375)"/>
<path d="M0 0 C21.95022137 -0.09059397 43.90028936 -0.16415201 65.85065079 -0.20724869 C76.04454533 -0.22779872 86.23831473 -0.25577322 96.43212891 -0.30175781 C105.3259518 -0.34185868 114.21968397 -0.36748761 123.11359477 -0.37635398 C127.81480959 -0.38152972 132.51576507 -0.39353322 137.21689606 -0.42292023 C172.20088645 -0.63304811 205.97975623 1.86337386 232.51513672 27.48291016 C247.2880018 42.57639645 252.3125 61.92588197 252.3125 82.43261719 C251.99454375 101.28597755 245.20475619 117.96328502 231.86328125 131.34375 C214.98676471 147 214.98676471 147 207 147 C207 147.66 207 148.32 207 149 C207.69738281 149.0928125 208.39476562 149.185625 209.11328125 149.28125 C224.70373631 153.16304125 239.54850771 169.59599383 247.75 182.5625 C258.92234576 202.62075797 259.84524902 228.16214968 254 250 C249.90264953 263.10570965 243.59819231 273.23660645 234 283 C233.38511719 283.62777344 232.77023437 284.25554687 232.13671875 284.90234375 C211.21740816 304.6569818 180.36545614 309.35903754 152.80517578 309.22705078 C151.12825528 309.22648519 149.45133428 309.22680611 147.77441406 309.22793579 C143.26707787 309.22850453 138.75985032 309.21682861 134.25253916 309.20278788 C129.52536999 309.19019988 124.79819774 309.1891037 120.0710144 309.18673706 C111.13954994 309.18054583 102.20813502 309.16416724 93.27669227 309.14403808 C83.10002649 309.12160529 72.92335822 309.11066717 62.74667382 309.10064721 C41.83108217 309.07979867 20.91555835 309.04315224 0 309 C0 292.5 0 276 0 259 C12.87 259 25.74 259 39 259 C39 189.7 39 120.4 39 49 C26.13 49 13.26 49 0 49 C0 32.83 0 16.66 0 0 Z " fill="#FDFDFD" transform="translate(300,271)"/>
<path d="M0 0 C8.45625 -0.04125 16.9125 -0.0825 25.625 -0.125 C28.2645166 -0.14320801 30.9040332 -0.16141602 33.62353516 -0.18017578 C73.71958827 -0.34307381 73.71958827 -0.34307381 89 13 C97.25247678 21.55483045 100.35922047 32.62220115 100.21875 44.28125 C99.42322742 54.16845916 96.06543313 62.30200518 88.9375 69.125 C79.79553829 76.81019383 69.53093228 79.13692361 58 81 C56.52309692 81.2623645 56.52309692 81.2623645 55.01635742 81.5300293 C49.75387222 82.27155776 44.46336612 82.12312257 39.16015625 82.09765625 C37.66687805 82.09614563 37.66687805 82.09614563 36.14343262 82.09460449 C32.44977658 82.08940038 28.75613704 82.07543924 25.0625 82.0625 C16.791875 82.041875 8.52125 82.02125 0 82 C0 54.94 0 27.88 0 0 Z " fill="#080A0E" transform="translate(397,447)"/>
<path d="M0 0 C6.703125 -0.04125 13.40625 -0.0825 20.3125 -0.125 C22.38442627 -0.14320801 24.45635254 -0.16141602 26.59106445 -0.18017578 C69.78648738 -0.40085818 69.78648738 -0.40085818 84 12 C91.05034341 19.19261491 94.17287998 28.0337435 94.5 38 C94.17888783 47.46762992 91.68023256 55.32362798 85.03515625 62.22265625 C67.76955308 77.30106209 44.6439175 76.28862917 23.1875 76.125 C15.535625 76.08375 7.88375 76.0425 0 76 C0 50.92 0 25.84 0 0 Z " fill="#080A0E" transform="translate(398,321)"/>
<path d="M0 0 C0.99 0.495 0.99 0.495 2 1 C2 16.84 2 32.68 2 49 C14.87 49 27.74 49 41 49 C41 118.3 41 187.6 41 259 C28.13 259 15.26 259 2 259 C2 275.5 2 292 2 309 C54.47 309 106.94 309 161 309 C161 309.33 161 309.66 161 310 C140.15590209 310.15374849 119.31177065 310.30178578 98.46758366 310.4429636 C88.78997238 310.50864431 79.11238112 310.57621674 69.43481445 310.64819336 C61.00302014 310.71089984 52.57120989 310.77010715 44.13936132 310.82505554 C39.6719098 310.8542926 35.20448645 310.88532046 30.73707771 310.92053413 C26.53718536 310.95358398 22.33728797 310.98197567 18.13733864 311.00670624 C16.59130385 311.0166471 15.04527918 311.02832856 13.49927139 311.04183006 C11.3976707 311.05993016 9.29612414 311.07191727 7.19447327 311.08229065 C6.01550004 311.09058679 4.83652681 311.09888292 3.62182713 311.10743046 C1 311 1 311 0 310 C-0.09861598 308.37872577 -0.12798767 306.75317632 -0.12939453 305.12890625 C-0.13254669 304.09113037 -0.13569885 303.05335449 -0.13894653 301.98413086 C-0.1369223 300.85499268 -0.13489807 299.72585449 -0.1328125 298.5625 C-0.13424759 296.83688843 -0.13424759 296.83688843 -0.13571167 295.07641602 C-0.13639369 292.63850856 -0.1345379 290.2005993 -0.13037109 287.76269531 C-0.12502317 284.01623482 -0.13031539 280.26989423 -0.13671875 276.5234375 C-0.13605797 274.16145807 -0.13477682 271.79947871 -0.1328125 269.4375 C-0.13483673 268.30836182 -0.13686096 267.17922363 -0.13894653 266.01586914 C-0.13579437 264.97809326 -0.13264221 263.94031738 -0.12939453 262.87109375 C-0.12859894 261.95255615 -0.12780334 261.03401855 -0.12698364 260.08764648 C0 258 0 258 1 257 C13.21 257 25.42 257 38 257 C38 189.02 38 121.04 38 51 C26.12 51 14.24 51 2 51 C0 49 0 49 -0.24050903 46.89926147 C-0.23606781 46.03322296 -0.23162659 45.16718445 -0.22705078 44.27490234 C-0.22682419 42.80360367 -0.22682419 42.80360367 -0.22659302 41.30258179 C-0.21627045 40.24108917 -0.20594788 39.17959656 -0.1953125 38.0859375 C-0.1924826 37.00116119 -0.18965271 35.91638489 -0.18673706 34.79873657 C-0.17551578 31.32404687 -0.15040762 27.84961218 -0.125 24.375 C-0.11497272 22.02344121 -0.10584643 19.6718784 -0.09765625 17.3203125 C-0.07557011 11.54678756 -0.04207345 5.77341199 0 0 Z " fill="#222325" transform="translate(298,271)"/>
<path d="M0 0 C12.9628125 -0.0309375 12.9628125 -0.0309375 26.1875 -0.0625 C28.90895264 -0.071604 31.63040527 -0.08070801 34.43432617 -0.09008789 C36.59553986 -0.09300898 38.7567541 -0.09555709 40.91796875 -0.09765625 C42.03675415 -0.10277222 43.15553955 -0.10788818 44.30822754 -0.11315918 C45.38366821 -0.11328003 46.45910889 -0.11340088 47.56713867 -0.11352539 C48.96279305 -0.11685631 48.96279305 -0.11685631 50.38664246 -0.12025452 C53.01814708 0.00083504 55.43509391 0.41481802 58 1 C58 1.33 58 1.66 58 2 C39.85 2 21.7 2 3 2 C2.67 27.74 2.34 53.48 2 80 C28.73 79.505 28.73 79.505 56 79 C55 81 55 81 53.25848389 81.61790466 C50.75075973 82.04216703 48.40830491 82.11982254 45.86425781 82.11352539 C44.82930176 82.11340454 43.7943457 82.11328369 42.72802734 82.11315918 C41.64730957 82.10804321 40.5665918 82.10292725 39.453125 82.09765625 C38.45458496 82.09664917 37.45604492 82.09564209 36.42724609 82.09460449 C32.70148569 82.08937724 28.97574168 82.07541597 25.25 82.0625 C16.9175 82.041875 8.585 82.02125 0 82 C0 54.94 0 27.88 0 0 Z " fill="#2A2A2B" transform="translate(397,447)"/>
<path d="M0 0 C0 0.66 0 1.32 0 2 C-6.27 2.33 -12.54 2.66 -19 3 C-19 2.67 -19 2.34 -19 2 C-20.31097656 2.00785522 -20.31097656 2.00785522 -21.6484375 2.01586914 C-39.79442862 2.10978511 -57.87356037 1.99077501 -76 1 C-76 0.67 -76 0.34 -76 0 C-50.57877851 -1.22716386 -25.42055031 -0.85546647 0 0 Z " fill="#232527" transform="translate(466,48)"/>
<path d="M0 0 C2.70238949 4.05358424 2.22937614 6.18310104 2 11 C1.67 11.66 1.34 12.32 1 13 C0.9516098 15.20780309 0.96342807 17.41696952 1 19.625 C1.11601589 30.76252536 0.52379346 41.87774739 0 53 C-1.77706209 50.33440687 -2.87548273 47.9719385 -4 45 C-3.34 45 -2.68 45 -2 45 C-2.02320313 43.7625 -2.04640625 42.525 -2.0703125 41.25 C-2.24334845 27.40036511 -1.35292723 13.77934795 0 0 Z " fill="#1C1D1F" transform="translate(37,390)"/>
<path d="M0 0 C2.92635848 5.85271696 3.12745637 11.3419668 3.09765625 17.80859375 C3.09443359 19.04931641 3.09121094 20.29003906 3.08789062 21.56835938 C3.07951172 22.84517578 3.07113281 24.12199219 3.0625 25.4375 C3.05798828 26.74138672 3.05347656 28.04527344 3.04882812 29.38867188 C3.03709251 32.59249552 3.02067363 35.79622363 3 39 C2.67 39 2.34 39 2 39 C1.67 33.72 1.34 28.44 1 23 C0.67 23 0.34 23 0 23 C0 15.41 0 7.82 0 0 Z " fill="#25262A" transform="translate(812,404)"/>
<path d="M0 0 C5.37672803 0.55708642 9.45533034 2.44131275 14.1875 4.875 C14.89841797 5.22691406 15.60933594 5.57882812 16.34179688 5.94140625 C19.74300672 7.66280879 22.38239056 9.18057373 25 12 C24.01 12.495 24.01 12.495 23 13 C20.98461914 12.21142578 20.98461914 12.21142578 18.53515625 10.9453125 C17.65279297 10.49542969 16.77042969 10.04554688 15.86132812 9.58203125 C14.93771484 9.10121094 14.01410156 8.62039063 13.0625 8.125 C11.24173088 7.18845863 9.42015009 6.25349315 7.59765625 5.3203125 C6.78820557 4.90023926 5.97875488 4.48016602 5.14477539 4.04736328 C2.90379933 2.89452648 2.90379933 2.89452648 0 2 C0 1.34 0 0.68 0 0 Z " fill="#1C1D1F" transform="translate(240,767)"/>
<path d="M0 0 C3 3.625 3 3.625 3 7 C3.66 7 4.32 7 5 7 C9.59225513 15.261959 9.59225513 15.261959 9 20 C6.3539919 16.67615649 4.29763888 13.15624912 2.25 9.4375 C1.61578125 8.30183594 0.9815625 7.16617188 0.328125 5.99609375 C-1 3 -1 3 0 0 Z " fill="#18191C" transform="translate(76,594)"/>
<path d="M0 0 C8.58 0 17.16 0 26 0 C26 0.66 26 1.32 26 2 C16.595 2.495 16.595 2.495 7 3 C7 2.67 7 2.34 7 2 C4.69 1.67 2.38 1.34 0 1 C0 0.67 0 0.34 0 0 Z " fill="#2B2B2F" transform="translate(440,48)"/>
<path d="M0 0 C4.67948398 -0.27771418 7.67583336 0.45162603 11.875 2.5 C13.32519531 3.19609375 13.32519531 3.19609375 14.8046875 3.90625 C15.52914063 4.2671875 16.25359375 4.628125 17 5 C17 5.66 17 6.32 17 7 C17.99 6.67 18.98 6.34 20 6 C20.33 6.99 20.66 7.98 21 9 C13.81783567 6.72564796 6.9241798 3.96415819 0 1 C0 0.67 0 0.34 0 0 Z " fill="#1D1E21" transform="translate(265,780)"/>
<path d="M0 0 C0.66 0 1.32 0 2 0 C3.22691067 2.45382134 3.20175931 4.19984103 3.25 6.9375 C3.27578125 7.81277344 3.3015625 8.68804687 3.328125 9.58984375 C3 12 3 12 0 15 C0 10.05 0 5.1 0 0 Z " fill="#101113" transform="translate(494,482)"/>
<path d="M0 0 C2.69461986 4.04192978 2.23200889 6.2051496 2 11 C1.67 11.33 1.34 11.66 1 12 C0.76472227 14.34987262 0.58613583 16.70556039 0.4375 19.0625 C0.35371094 20.35285156 0.26992188 21.64320313 0.18359375 22.97265625 C0.12300781 23.97167969 0.06242187 24.97070312 0 26 C-0.66 26 -1.32 26 -2 26 C-1.34 17.42 -0.68 8.84 0 0 Z " fill="#2F2F32" transform="translate(37,390)"/>
<path d="M0 0 C0.99 0 1.98 0 3 0 C3 4.62 3 9.24 3 14 C2.01 14 1.02 14 0 14 C0 9.38 0 4.76 0 0 Z " fill="#111214" transform="translate(489,352)"/>
<path d="M0 0 C0.33 0 0.66 0 1 0 C1.33 3.3 1.66 6.6 2 10 C2.33 10 2.66 10 3 10 C2.67 14.95 2.34 19.9 2 25 C1.67 25 1.34 25 1 25 C0.93941406 24.30132812 0.87882812 23.60265625 0.81640625 22.8828125 C0.73261719 21.97273438 0.64882813 21.06265625 0.5625 20.125 C0.48128906 19.22007812 0.40007813 18.31515625 0.31640625 17.3828125 C0.13010715 14.98889139 0.13010715 14.98889139 -1 13 C-0.91188555 10.78861145 -0.7570216 8.57957815 -0.5625 6.375 C-0.46066406 5.18648438 -0.35882813 3.99796875 -0.25390625 2.7734375 C-0.17011719 1.85820312 -0.08632813 0.94296875 0 0 Z " fill="#323235" transform="translate(36,448)"/>
<path d="M0 0 C3.46941546 0.45822468 6.67395049 0.89131683 10 2 C10 2.66 10 3.32 10 4 C11.32 3.67 12.64 3.34 14 3 C14.33 3.99 14.66 4.98 15 6 C13.06201479 5.69052329 11.12462574 5.37731166 9.1875 5.0625 C8.10855469 4.88847656 7.02960938 4.71445312 5.91796875 4.53515625 C3 4 3 4 0 3 C0.66 3 1.32 3 2 3 C2 2.34 2 1.68 2 1 C1.34 0.67 0.68 0.34 0 0 Z " fill="#1A1A1E" transform="translate(306,795)"/>
<path d="M0 0 C0 0.33 0 0.66 0 1 C-0.7425 1.144375 -1.485 1.28875 -2.25 1.4375 C-3.81896599 1.75842486 -5.38430815 2.10541719 -6.92871094 2.52905273 C-10.32990521 3.30237944 -13.78072863 3.10234146 -17.25 3.0625 C-17.99507813 3.05798828 -18.74015625 3.05347656 -19.5078125 3.04882812 C-21.3385764 3.03709246 -23.16929873 3.0191585 -25 3 C-25 2.67 -25 2.34 -25 2 C-8.29157175 -0.29612756 -8.29157175 -0.29612756 0 0 Z " fill="#2F3033" transform="translate(388,49)"/>
<path d="M0 0 C1.52519276 0.08937803 3.04681929 0.24537146 4.5625 0.4375 C5.38878906 0.53933594 6.21507812 0.64117188 7.06640625 0.74609375 C7.70449219 0.82988281 8.34257812 0.91367187 9 1 C9 1.33 9 1.66 9 2 C-5.59681093 4.29612756 -5.59681093 4.29612756 -13 4 C-13 3.67 -13 3.34 -13 3 C-11.02 3 -9.04 3 -7 3 C-6.67 2.34 -6.34 1.68 -6 1 C-4.7934375 1.0309375 -4.7934375 1.0309375 -3.5625 1.0625 C-1.06645115 1.29633621 -1.06645115 1.29633621 0 0 Z " fill="#2D2E32" transform="translate(479,809)"/>
<path d="M0 0 C-2.37616467 2.37616467 -4.35349521 3.04068181 -7.5 4.1875 C-8.4796875 4.55230469 -9.459375 4.91710937 -10.46875 5.29296875 C-13 6 -13 6 -15 5 C-13.54341873 2.08683746 -11.63839986 1.90792226 -8.625 0.8125 C-7.15933594 0.26529297 -7.15933594 0.26529297 -5.6640625 -0.29296875 C-3 -1 -3 -1 0 0 Z " fill="#1C1C1F" transform="translate(569,787)"/>
<path d="M0 0 C0.66 0.33 1.32 0.66 2 1 C1.3920502 5.13405862 0.09037553 8.38204235 -2 12 C-2.99 12.66 -3.98 13.32 -5 14 C-3.45730076 9.27934033 -1.92205381 4.58335908 0 0 Z " fill="#1D1F22" transform="translate(67,278)"/>
<path d="M0 0 C-1.20783751 3.62351253 -2.29653142 4.15215236 -5.4375 6.1875 C-6.24058594 6.71730469 -7.04367187 7.24710938 -7.87109375 7.79296875 C-10 9 -10 9 -12 9 C-10.79216249 5.37648747 -9.70346858 4.84784764 -6.5625 2.8125 C-5.75941406 2.28269531 -4.95632813 1.75289062 -4.12890625 1.20703125 C-2 0 -2 0 0 0 Z " fill="#18191C" transform="translate(642,746)"/>
<path d="M0 0 C2.46301423 2.46301423 2.76766521 4.27360036 3.625 7.625 C3.88539063 8.62789063 4.14578125 9.63078125 4.4140625 10.6640625 C4.60742188 11.43492187 4.80078125 12.20578125 5 13 C4.01 13 3.02 13 2 13 C0.54815522 8.46298506 -0.23509196 4.81938524 0 0 Z " fill="#1C1D1F" transform="translate(791,298)"/>
<path d="M0 0 C0.578125 1.8828125 0.578125 1.8828125 1 4 C-0.25 5.875 -0.25 5.875 -2 8 C-3.03041427 9.98450156 -4.03685937 11.98199105 -5 14 C-5.66 14 -6.32 14 -7 14 C-5.53967505 8.68972746 -3.01679014 4.53669968 0 0 Z " fill="#1F2022" transform="translate(91,233)"/>
<path d="M0 0 C1.5 1.0625 1.5 1.0625 3 3 C3.125 6.5625 3.125 6.5625 3 10 C3.33 10.66 3.66 11.32 4 12 C3.71887936 14.00800456 3.38932033 16.01014051 3 18 C2.67 18 2.34 18 2 18 C1.6603981 16.12612523 1.32861309 14.25083303 1 12.375 C0.7215625 10.80878906 0.7215625 10.80878906 0.4375 9.2109375 C0.01284203 6.09425135 -0.07545206 3.14069188 0 0 Z " fill="#2E2E32" transform="translate(38,475)"/>
<path d="M0 0 C0.99 0.33 1.98 0.66 3 1 C3.94921875 3.06640625 3.94921875 3.06640625 4.6875 5.5625 C4.93886719 6.38878906 5.19023438 7.21507812 5.44921875 8.06640625 C5.63097656 8.70449219 5.81273438 9.34257813 6 10 C5.01 10.495 5.01 10.495 4 11 C3.32880451 9.5437455 2.66318193 8.08492133 2 6.625 C1.62875 5.81289063 1.2575 5.00078125 0.875 4.1640625 C0 2 0 2 0 0 Z " fill="#1A1A1D" transform="translate(61,565)"/>
<path d="M0 0 C0.33 0.66 0.66 1.32 1 2 C1.66 2 2.32 2 3 2 C3.38909985 3.45463481 3.76088029 4.91391207 4.125 6.375 C4.43824219 7.59316406 4.43824219 7.59316406 4.7578125 8.8359375 C4.83773437 9.55007813 4.91765625 10.26421875 5 11 C4.34 11.66 3.68 12.32 3 13 C2.49487756 11.39743892 1.99608373 9.79288208 1.5 8.1875 C1.2215625 7.29417969 0.943125 6.40085937 0.65625 5.48046875 C0 3 0 3 0 0 Z " fill="#1F1F22" transform="translate(47,522)"/>
<path d="M0 0 C1.31534494 3.65857532 0.65468309 6.08026481 -0.4375 9.75 C-0.86869141 11.22726562 -0.86869141 11.22726562 -1.30859375 12.734375 C-1.53675781 13.48203125 -1.76492188 14.2296875 -2 15 C-3.30660357 10.70272603 -2.6596762 7.39784135 -2 3 C-1.34 3 -0.68 3 0 3 C0 2.01 0 1.02 0 0 Z " fill="#1E1F22" transform="translate(804,513)"/>
<path d="M0 0 C0.33 0.66 0.66 1.32 1 2 C-0.98 4.97 -2.96 7.94 -5 11 C-5.99 10.34 -6.98 9.68 -8 9 C-5.36 6.03 -2.72 3.06 0 0 Z " fill="#1B1C1F" transform="translate(134,176)"/>
<path d="M0 0 C5.15171623 -0.09038099 9.91913204 0.15318867 15 1 C15 1.33 15 1.66 15 2 C9.06 2.495 9.06 2.495 3 3 C3 2.34 3 1.68 3 1 C2.01 0.67 1.02 0.34 0 0 Z " fill="#28292B" transform="translate(469,50)"/>
<path d="M0 0 C0.66 0 1.32 0 2 0 C1.54917531 1.46067199 1.08906463 2.91848032 0.625 4.375 C0.36976563 5.18710937 0.11453125 5.99921875 -0.1484375 6.8359375 C-1 9 -1 9 -3 11 C-2.25 3.375 -2.25 3.375 0 0 Z " fill="#1D1E21" transform="translate(785,569)"/>
<path d="M0 0 C2.1640625 0.0234375 2.1640625 0.0234375 4.625 0.375 C5.85089844 0.54128906 5.85089844 0.54128906 7.1015625 0.7109375 C7.72804688 0.80632812 8.35453125 0.90171875 9 1 C9 1.99 9 2.98 9 4 C5.37 3.34 1.74 2.68 -2 2 C-1.34 1.34 -0.68 0.68 0 0 Z " fill="#141517" transform="translate(479,271)"/>
<path d="M0 0 C1.65 0.33 3.3 0.66 5 1 C1.92000054 4.67230705 -0.2482602 5.56802365 -5 6 C-4.175 5.195625 -3.35 4.39125 -2.5 3.5625 C0.11638731 1.47736982 0.11638731 1.47736982 0 0 Z " fill="#1C1D1F" transform="translate(231,96)"/>
<path d="M0 0 C0 0.33 0 0.66 0 1 C-5.61 0.67 -11.22 0.34 -17 0 C-17 -0.33 -17 -0.66 -17 -1 C-5.47835991 -2.51708428 -5.47835991 -2.51708428 0 0 Z " fill="#020203" transform="translate(472,51)"/>
<path d="M0 0 C0.99 0.33 1.98 0.66 3 1 C3.33 3.97 3.66 6.94 4 10 C3.01 10 2.02 10 1 10 C0.67 6.7 0.34 3.4 0 0 Z " fill="#111213" transform="translate(555,474)"/>
<path d="M0 0 C1.79275866 3.11910856 2.34290718 5.67682428 2.625 9.25 C2.69976563 10.14203125 2.77453125 11.0340625 2.8515625 11.953125 C2.92503906 12.96632813 2.92503906 12.96632813 3 14 C2.01 13.34 1.02 12.68 0 12 C-0.29296875 9.1796875 -0.29296875 9.1796875 -0.1875 5.875 C-0.16042969 4.77929688 -0.13335938 3.68359375 -0.10546875 2.5546875 C-0.07066406 1.71164062 -0.03585937 0.86859375 0 0 Z " fill="#26282B" transform="translate(806,349)"/>
<path d="M0 0 C4.43379675 2.21689838 6.46636932 4.77728219 9 9 C7.68 8.34 6.36 7.68 5 7 C5 6.34 5 5.68 5 5 C4.01 5 3.02 5 2 5 C1.34 3.35 0.68 1.7 0 0 Z " fill="#161617" transform="translate(478,331)"/>
<path d="M0 0 C0 0.66 0 1.32 0 2 C-6.75 6 -6.75 6 -9 6 C-8 3 -8 3 -5.0625 1.3125 C-2 0 -2 0 0 0 Z " fill="#17181A" transform="translate(617,762)"/>
<path d="M0 0 C2.475 0.495 2.475 0.495 5 1 C5.33 1.99 5.66 2.98 6 4 C8.01508358 4.73323796 8.01508358 4.73323796 10 5 C10 5.66 10 6.32 10 7 C5.56541027 5.6062718 3.12621626 3.39417765 0 0 Z " fill="#1A1A1D" transform="translate(198,740)"/>
<path d="M0 0 C0.66 0.33 1.32 0.66 2 1 C0.90101298 4.29696105 0.05402613 5.04670589 -2.5625 7.1875 C-3.20316406 7.71730469 -3.84382812 8.24710938 -4.50390625 8.79296875 C-4.99761719 9.19128906 -5.49132812 9.58960938 -6 10 C-6.66 9.67 -7.32 9.34 -8 9 C-7.50628906 8.51789063 -7.01257813 8.03578125 -6.50390625 7.5390625 C-5.86324219 6.90742188 -5.22257813 6.27578125 -4.5625 5.625 C-3.92441406 4.99851563 -3.28632813 4.37203125 -2.62890625 3.7265625 C-0.92117824 2.08276939 -0.92117824 2.08276939 0 0 Z " fill="#1E1E22" transform="translate(143,166)"/>
<path d="M0 0 C-1.39332574 3.36720387 -2.9789286 4.9859524 -6 7 C-6.66 6.34 -7.32 5.68 -8 5 C-2.25 0 -2.25 0 0 0 Z " fill="#151619" transform="translate(689,708)"/>
<path d="M0 0 C2.64 0.33 5.28 0.66 8 1 C8 1.66 8 2.32 8 3 C8.99 3.33 9.98 3.66 11 4 C3.49230769 3.38461538 3.49230769 3.38461538 1 1.4375 C0.67 0.963125 0.34 0.48875 0 0 Z " fill="#1D1D20" transform="translate(334,803)"/>
<path d="M0 0 C0.99 0 1.98 0 3 0 C3.99 1.98 4.98 3.96 6 6 C4.68 6.33 3.36 6.66 2 7 C1.7834375 5.824375 1.7834375 5.824375 1.5625 4.625 C1.12201075 2.03578982 1.12201075 2.03578982 0 0 Z " fill="#1A1A1D" transform="translate(87,618)"/>
<path d="M0 0 C1.12758089 3.38274266 0.81750262 4.76778223 0.0625 8.1875 C-0.13214844 9.08855469 -0.32679687 9.98960937 -0.52734375 10.91796875 C-0.68332031 11.60503906 -0.83929688 12.29210937 -1 13 C-1.33 13 -1.66 13 -2 13 C-3.19876651 7.55106131 -2.91360308 4.77830905 0 0 Z " fill="#020204" transform="translate(42,367)"/>
<path d="M0 0 C3.40312738 1.05875074 6.01353231 2.00902154 9 4 C8.67 4.66 8.34 5.32 8 6 C5.36 4.68 2.72 3.36 0 2 C0 1.34 0 0.68 0 0 Z " fill="#19191A" transform="translate(505,279)"/>
<path d="M0 0 C0.66 0 1.32 0 2 0 C0.90931332 3.77545388 0.0916909 6.47043472 -3 9 C-2.5020163 5.26512223 -2.12508244 3.18762365 0 0 Z " fill="#151619" transform="translate(765,609)"/>
<path d="M0 0 C0.33 0 0.66 0 1 0 C0.67 4.62 0.34 9.24 0 14 C-0.33 14 -0.66 14 -1 14 C-2.51708428 4.58997722 -2.51708428 4.58997722 0 0 Z " fill="#2F3032" transform="translate(811,473)"/>
<path d="M0 0 C0.66 0 1.32 0 2 0 C2.99 2.97 3.98 5.94 5 9 C4.01 9 3.02 9 2 9 C1.34 6.03 0.68 3.06 0 0 Z " fill="#101112" transform="translate(552,464)"/>
<path d="M0 0 C4 4.625 4 4.625 4 8 C2.35 6.68 0.7 5.36 -1 4 C-0.67 2.68 -0.34 1.36 0 0 Z " fill="#181A1E" transform="translate(700,157)"/>
<path d="M0 0 C0.33 0.66 0.66 1.32 1 2 C-1.31 2.33 -3.62 2.66 -6 3 C-6 2.01 -6 1.02 -6 0 C-2.25 -1.125 -2.25 -1.125 0 0 Z " fill="#101113" transform="translate(495,576)"/>
<path d="M0 0 C1.65 0 3.3 0 5 0 C4.34 2.31 3.68 4.62 3 7 C1.25372522 4.38058783 0.61277612 2.96175123 0 0 Z M2 2 C3 4 3 4 3 4 Z " fill="#272729" transform="translate(57,560)"/>
<path d="M0 0 C1 2 1 2 0.0625 5.125 C-0.288125 6.07375 -0.63875 7.0225 -1 8 C-1.66 8 -2.32 8 -3 8 C-2.74438677 5.6568787 -2.40729228 3.32156597 -2 1 C-1.34 0.67 -0.68 0.34 0 0 Z " fill="#16171B" transform="translate(797,539)"/>
<path d="M0 0 C2.15377564 2.62198774 3.40072174 4.64404172 4 8 C1 7 1 7 -0.25 4.5625 C-1 2 -1 2 0 0 Z " fill="#18191C" transform="translate(773,257)"/>
<path d="M0 0 C5.53846154 0.61538462 5.53846154 0.61538462 7.875 2.5625 C8.431875 3.2740625 8.431875 3.2740625 9 4 C3.46153846 3.38461538 3.46153846 3.38461538 1.125 1.4375 C0.75375 0.963125 0.3825 0.48875 0 0 Z " fill="#1D1E21" transform="translate(618,99)"/>
<path d="M0 0 C5.53846154 0.61538462 5.53846154 0.61538462 7.875 2.5625 C8.431875 3.2740625 8.431875 3.2740625 9 4 C5.30581799 4 3.22163822 2.71820705 0 1 C0 0.67 0 0.34 0 0 Z " fill="#1C1D20" transform="translate(609,94)"/>
<path d="M0 0 C-2.39509338 2.89932357 -4.31245243 3.50168276 -8 4 C-8.33 3.34 -8.66 2.68 -9 2 C-3.375 -1.125 -3.375 -1.125 0 0 Z " fill="#212124" transform="translate(266,82)"/>
<path d="M0 0 C4.95 0.99 4.95 0.99 10 2 C6 4 6 4 3.75 3.625 C3.1725 3.41875 2.595 3.2125 2 3 C2 2.34 2 1.68 2 1 C1.34 0.67 0.68 0.34 0 0 Z " fill="#242527" transform="translate(526,60)"/>
<path d="M0 0 C1.98 0 3.96 0 6 0 C4.68 1.32 3.36 2.64 2 4 C1.34 3.34 0.68 2.68 0 2 C0 1.34 0 0.68 0 0 Z " fill="#131313" transform="translate(168,137)"/>
<path d="M0 0 C0.66 0.66 1.32 1.32 2 2 C1.34 2.66 0.68 3.32 0 4 C-0.99 3.34 -1.98 2.68 -3 2 C-2.01 1.34 -1.02 0.68 0 0 Z " fill="#1E1E1E" transform="translate(654,740)"/>
<path d="M0 0 C1.65 0 3.3 0 5 0 C4.01 1.485 4.01 1.485 3 3 C2.01 2.67 1.02 2.34 0 2 C0 1.34 0 0.68 0 0 Z " fill="#1F1F1F" transform="translate(745,208)"/>
<path d="M0 0 C0.33 0 0.66 0 1 0 C1 2.31 1 4.62 1 7 C0.67 7 0.34 7 0 7 C0 4.69 0 2.38 0 0 Z " fill="#181818" transform="translate(34,450)"/>
<path d="M0 0 C0.66 0.33 1.32 0.66 2 1 C2 1.66 2 2.32 2 3 C0.68 2.34 -0.64 1.68 -2 1 C-1.34 0.67 -0.68 0.34 0 0 Z " fill="#0C0C0C" transform="translate(622,96)"/>
<path d="M0 0 C2.31 0 4.62 0 7 0 C7 0.33 7 0.66 7 1 C4.69 1 2.38 1 0 1 C0 0.67 0 0.34 0 0 Z " fill="#181818" transform="translate(470,48)"/>
<path d="M0 0 C0.99 0.495 0.99 0.495 2 1 C1.67 1.99 1.34 2.98 1 4 C0.67 2.68 0.34 1.36 0 0 Z " fill="#000000" transform="translate(146,698)"/>
<path d="M0 0 C0.66 0 1.32 0 2 0 C1.67 1.32 1.34 2.64 1 4 C0.67 2.68 0.34 1.36 0 0 Z " fill="#212121" transform="translate(774,255)"/>
<path d="M0 0 C0.99 0 1.98 0 3 0 C2.67 0.99 2.34 1.98 2 3 C1.34 2.67 0.68 2.34 0 2 C0 1.34 0 0.68 0 0 Z " fill="#0E0E0E" transform="translate(652,114)"/>
<path d="M0 0 C0.33 0.66 0.66 1.32 1 2 C0.34 2.66 -0.32 3.32 -1 4 C-0.67 2.68 -0.34 1.36 0 0 Z " fill="#000000" transform="translate(89,232)"/>
<path d="M0 0 C1.98 0.99 1.98 0.99 4 2 C2.68 2 1.36 2 0 2 C0 1.34 0 0.68 0 0 Z " fill="#000000" transform="translate(487,49)"/>
<path d="M0 0 C0.99 0.495 0.99 0.495 2 1 C1.34 1.66 0.68 2.32 0 3 C0 2.01 0 1.02 0 0 Z " fill="#000000" transform="translate(330,805)"/>
<path d="M0 0 C0 3 0 3 0 3 Z " fill="#252525" transform="translate(701,701)"/>
<path d="M0 0 C0.99 1.485 0.99 1.485 2 3 C1.34 3 0.68 3 0 3 C0 2.01 0 1.02 0 0 Z " fill="#000000" transform="translate(104,653)"/>
<path d="M0 0 C0.99 1.485 0.99 1.485 2 3 C1.34 3 0.68 3 0 3 C0 2.01 0 1.02 0 0 Z " fill="#151515" transform="translate(797,545)"/>
<path d="M0 0 C1 4 1 4 1 4 Z " fill="#000000" transform="translate(33,428)"/>
<path d="M0 0 C1 4 1 4 1 4 Z " fill="#252525" transform="translate(34,403)"/>
<path d="M0 0 C0.66 0 1.32 0 2 0 C1.67 0.99 1.34 1.98 1 3 C0.67 2.01 0.34 1.02 0 0 Z " fill="#2A2A2A" transform="translate(789,289)"/>
<path d="M0 0 C0.99 0.495 0.99 0.495 2 1 C1.67 1.66 1.34 2.32 1 3 C0.67 2.01 0.34 1.02 0 0 Z " fill="#2A2A2A" transform="translate(750,215)"/>
<path d="M0 0 C0.66 0.66 1.32 1.32 2 2 C1.01 2.495 1.01 2.495 0 3 C0 2.01 0 1.02 0 0 Z " fill="#0A0A0A" transform="translate(225,98)"/>
<path d="M0 0 C4 1 4 1 4 1 Z " fill="#000000" transform="translate(327,56)"/>
<path d="M0 0 C1.485 0.99 1.485 0.99 3 2 C2.01 2 1.02 2 0 2 C0 1.34 0 0.68 0 0 Z " fill="#151515" transform="translate(478,48)"/>
<path d="M0 0 C0.66 0 1.32 0 2 0 C1.67 0.66 1.34 1.32 1 2 C0.67 1.34 0.34 0.68 0 0 Z " fill="#000000" transform="translate(482,812)"/>
<path d="M0 0 C3 1 3 1 3 1 Z " fill="#000000" transform="translate(540,799)"/>
<path d="M0 0 C3 1 3 1 3 1 Z " fill="#000000" transform="translate(300,796)"/>
<path d="M0 0 C3 1 3 1 3 1 Z " fill="#000000" transform="translate(244,772)"/>
<path d="M0 0 C0.33 0.66 0.66 1.32 1 2 C0.34 1.67 -0.32 1.34 -1 1 C-0.67 0.67 -0.34 0.34 0 0 Z " fill="#000000" transform="translate(242,770)"/>
<path d="M0 0 C0.66 0.66 1.32 1.32 2 2 C1.34 2 0.68 2 0 2 C0 1.34 0 0.68 0 0 Z " fill="#000000" transform="translate(193,738)"/>
<path d="M0 0 C0.66 0 1.32 0 2 0 C1.67 0.66 1.34 1.32 1 2 C0.67 1.34 0.34 0.68 0 0 Z " fill="#000000" transform="translate(105,652)"/>
<path d="M0 0 C0.66 0 1.32 0 2 0 C1.67 0.66 1.34 1.32 1 2 C0.67 1.34 0.34 0.68 0 0 Z " fill="#1C1C1C" transform="translate(750,644)"/>
<path d="" fill="#000000" transform="translate(0,0)"/>
<path d="" fill="#151515" transform="translate(0,0)"/>
<path d="" fill="#1C1C1C" transform="translate(0,0)"/>
<path d="" fill="#000000" transform="translate(0,0)"/>
<path d="M0 0 C0.99 0.495 0.99 0.495 2 1 C1.01 1.495 1.01 1.495 0 2 C0 1.34 0 0.68 0 0 Z " fill="#000000" transform="translate(72,257)"/>
<path d="M0 0 C3 1 3 1 3 1 Z " fill="#111111" transform="translate(701,153)"/>
<path d="M0 0 C0.99 0.495 0.99 0.495 2 1 C1.01 1.495 1.01 1.495 0 2 C0 1.34 0 0.68 0 0 Z " fill="#000000" transform="translate(670,130)"/>
<path d="" fill="#000000" transform="translate(0,0)"/>
<path d="M0 0 C0.66 0.66 1.32 1.32 2 2 C1.34 2 0.68 2 0 2 C0 1.34 0 0.68 0 0 Z " fill="#000000" transform="translate(227,97)"/>
<path d="M0 0 C3 1 3 1 3 1 Z " fill="#1C1C1C" transform="translate(224,96)"/>
<path d="M0 0 C3 1 3 1 3 1 Z " fill="#1C1C1C" transform="translate(589,81)"/>
<path d="M0 0 C3 1 3 1 3 1 Z " fill="#000000" transform="translate(352,51)"/>
<path d="M0 0 C0.66 0 1.32 0 2 0 C1.67 0.66 1.34 1.32 1 2 C0.67 1.34 0.34 0.68 0 0 Z " fill="#000000" transform="translate(494,48)"/>
<path d="M0 0 C3 1 3 1 3 1 Z " fill="#000000" transform="translate(372,48)"/>
<path d="M0 0 C2 1 2 1 2 1 Z " fill="#000000" transform="translate(746,851)"/>
<path d="" fill="#000000" transform="translate(0,0)"/>
<path d="M0 0 C2 1 2 1 2 1 Z " fill="#000000" transform="translate(485,812)"/>
<path d="M0 0 C2 1 2 1 2 1 Z " fill="#000000" transform="translate(338,807)"/>
<path d="M0 0 C2 1 2 1 2 1 Z " fill="#000000" transform="translate(335,806)"/>
<path d="M0 0 C2 1 2 1 2 1 Z " fill="#000000" transform="translate(332,806)"/>
<path d="M0 0 C2 1 2 1 2 1 Z " fill="#000000" transform="translate(746,803)"/>
<path d="M0 0 C2 1 2 1 2 1 Z " fill="#000000" transform="translate(298,795)"/>
<path d="M0 0 C2 1 2 1 2 1 Z " fill="#1F1F1F" transform="translate(282,789)"/>
<path d="" fill="#000000" transform="translate(0,0)"/>
<path d="M0 0 C2 1 2 1 2 1 Z " fill="#000000" transform="translate(257,778)"/>
<path d="M0 0 C2 1 2 1 2 1 Z " fill="#2A2A2A" transform="translate(604,773)"/>
<path d="M0 0 C2 1 2 1 2 1 Z " fill="#000000" transform="translate(746,763)"/>
<path d="M0 0 C2 1 2 1 2 1 Z " fill="#000000" transform="translate(630,756)"/>
<path d="" fill="#000000" transform="translate(0,0)"/>
<path d="" fill="#000000" transform="translate(0,0)"/>
<path d="M0 0 C2 1 2 1 2 1 Z " fill="#000000" transform="translate(638,751)"/>
<path d="M0 0 C2 1 2 1 2 1 Z " fill="#2A2A2A" transform="translate(644,747)"/>
<path d="M0 0 C2 1 2 1 2 1 Z " fill="#000000" transform="translate(172,722)"/>
<path d="" fill="#000000" transform="translate(0,0)"/>
<path d="M0 0 C2 1 2 1 2 1 Z " fill="#000000" transform="translate(682,717)"/>
<path d="M0 0 C2 1 2 1 2 1 Z " fill="#000000" transform="translate(746,715)"/>
<path d="M0 0 C2 1 2 1 2 1 Z " fill="#000000" transform="translate(149,703)"/>
<path d="M0 0 C2 1 2 1 2 1 Z " fill="#000000" transform="translate(746,691)"/>
<path d="M0 0 C2 1 2 1 2 1 Z " fill="#000000" transform="translate(717,682)"/>
<path d="" fill="#000000" transform="translate(0,0)"/>
<path d="M0 0 C2 1 2 1 2 1 Z " fill="#000000" transform="translate(122,675)"/>
<path d="M0 0 C2 1 2 1 2 1 Z " fill="#000000" transform="translate(746,659)"/>
<path d="" fill="#000000" transform="translate(0,0)"/>
<path d="" fill="#000000" transform="translate(0,0)"/>
<path d="" fill="#2A2A2A" transform="translate(0,0)"/>
<path d="" fill="#2A2A2A" transform="translate(0,0)"/>
<path d="" fill="#000000" transform="translate(0,0)"/>
<path d="M0 0 C2 1 2 1 2 1 Z " fill="#000000" transform="translate(772,607)"/>
<path d="" fill="#000000" transform="translate(0,0)"/>
<path d="" fill="#000000" transform="translate(0,0)"/>
<path d="M0 0 C2 1 2 1 2 1 Z " fill="#000000" transform="translate(789,571)"/>
<path d="" fill="#000000" transform="translate(0,0)"/>
<path d="" fill="#3F3F3F" transform="translate(0,0)"/>
<path d="" fill="#151515" transform="translate(0,0)"/>
<path d="" fill="#2A2A2A" transform="translate(0,0)"/>
<path d="" fill="#000000" transform="translate(0,0)"/>
<path d="M0 0 C2 1 2 1 2 1 Z " fill="#2A2A2A" transform="translate(41,512)"/>
<path d="" fill="#000000" transform="translate(0,0)"/>
<path d="" fill="#000000" transform="translate(0,0)"/>
<path d="M0 0 C2 1 2 1 2 1 Z " fill="#000000" transform="translate(34,464)"/>
<path d="" fill="#000000" transform="translate(0,0)"/>
<path d="" fill="#000000" transform="translate(0,0)"/>
<path d="" fill="#000000" transform="translate(0,0)"/>
<path d="" fill="#000000" transform="translate(0,0)"/>
<path d="" fill="#000000" transform="translate(0,0)"/>
<path d="M0 0 C2 1 2 1 2 1 Z " fill="#000000" transform="translate(34,392)"/>
<path d="" fill="#000000" transform="translate(0,0)"/>
<path d="" fill="#000000" transform="translate(0,0)"/>
<path d="M0 0 C2 1 2 1 2 1 Z " fill="#000000" transform="translate(49,320)"/>
<path d="M0 0 C2 1 2 1 2 1 Z " fill="#2A2A2A" transform="translate(49,312)"/>
<path d="" fill="#000000" transform="translate(0,0)"/>
<path d="" fill="#000000" transform="translate(0,0)"/>
<path d="" fill="#000000" transform="translate(0,0)"/>
<path d="" fill="#3F3F3F" transform="translate(0,0)"/>
<path d="" fill="#000000" transform="translate(0,0)"/>
<path d="" fill="#000000" transform="translate(0,0)"/>
<path d="" fill="#000000" transform="translate(0,0)"/>
<path d="M0 0 C2 1 2 1 2 1 Z " fill="#000000" transform="translate(746,195)"/>
<path d="M0 0 C2 1 2 1 2 1 Z " fill="#000000" transform="translate(726,185)"/>
<path d="M0 0 C2 1 2 1 2 1 Z " fill="#000000" transform="translate(719,176)"/>
<path d="M0 0 C2 1 2 1 2 1 Z " fill="#000000" transform="translate(150,157)"/>
<path d="M0 0 C2 1 2 1 2 1 Z " fill="#000000" transform="translate(746,155)"/>
<path d="" fill="#000000" transform="translate(0,0)"/>
<path d="M0 0 C2 1 2 1 2 1 Z " fill="#000000" transform="translate(162,144)"/>
<path d="M0 0 C2 1 2 1 2 1 Z " fill="#000000" transform="translate(746,139)"/>
<path d="M0 0 C2 1 2 1 2 1 Z " fill="#3F3F3F" transform="translate(746,131)"/>
<path d="" fill="#000000" transform="translate(0,0)"/>
<path d="M0 0 C2 1 2 1 2 1 Z " fill="#2A2A2A" transform="translate(666,128)"/>
<path d="M0 0 C2 1 2 1 2 1 Z " fill="#000000" transform="translate(746,107)"/>
<path d="M0 0 C2 1 2 1 2 1 Z " fill="#000000" transform="translate(217,104)"/>
<path d="M0 0 C2 1 2 1 2 1 Z " fill="#000000" transform="translate(746,99)"/>
<path d="M0 0 C2 1 2 1 2 1 Z " fill="#000000" transform="translate(229,97)"/>
<path d="M0 0 C2 1 2 1 2 1 Z " fill="#000000" transform="translate(597,85)"/>
<path d="M0 0 C2 1 2 1 2 1 Z " fill="#000000" transform="translate(746,83)"/>
<path d="M0 0 C2 1 2 1 2 1 Z " fill="#000000" transform="translate(261,80)"/>
<path d="" fill="#000000" transform="translate(0,0)"/>
<path d="M0 0 C2 1 2 1 2 1 Z " fill="#000000" transform="translate(574,74)"/>
<path d="M0 0 C2 1 2 1 2 1 Z " fill="#3F3F3F" transform="translate(746,67)"/>
<path d="M0 0 C2 1 2 1 2 1 Z " fill="#000000" transform="translate(556,67)"/>
<path d="" fill="#000000" transform="translate(0,0)"/>
<path d="" fill="#3F3F3F" transform="translate(0,0)"/>
<path d="" fill="#000000" transform="translate(0,0)"/>
<path d="M0 0 C2 1 2 1 2 1 Z " fill="#000000" transform="translate(494,51)"/>
<path d="M0 0 C2 1 2 1 2 1 Z " fill="#000000" transform="translate(362,49)"/>
<path d="M0 0 C2 1 2 1 2 1 Z " fill="#2A2A2A" transform="translate(376,48)"/>
<path d="" fill="#7F7F7F" transform="translate(0,0)"/>
<path d="" fill="#000000" transform="translate(0,0)"/>
<path d="" fill="#000000" transform="translate(0,0)"/>
<path d="" fill="#000000" transform="translate(0,0)"/>
<path d="" fill="#000000" transform="translate(0,0)"/>
<path d="" fill="#000000" transform="translate(0,0)"/>
<path d="" fill="#000000" transform="translate(0,0)"/>
<path d="" fill="#000000" transform="translate(0,0)"/>
<path d="" fill="#000000" transform="translate(0,0)"/>
<path d="" fill="#000000" transform="translate(0,0)"/>
<path d="" fill="#000000" transform="translate(0,0)"/>
<path d="" fill="#000000" transform="translate(0,0)"/>
<path d="" fill="#7F7F7F" transform="translate(0,0)"/>
<path d="" fill="#000000" transform="translate(0,0)"/>
<path d="" fill="#7F7F7F" transform="translate(0,0)"/>
<path d="" fill="#000000" transform="translate(0,0)"/>
<path d="" fill="#000000" transform="translate(0,0)"/>
<path d="" fill="#000000" transform="translate(0,0)"/>
<path d="" fill="#000000" transform="translate(0,0)"/>
<path d="" fill="#000000" transform="translate(0,0)"/>
<path d="" fill="#000000" transform="translate(0,0)"/>
<path d="" fill="#7F7F7F" transform="translate(0,0)"/>
<path d="" fill="#000000" transform="translate(0,0)"/>
<path d="" fill="#000000" transform="translate(0,0)"/>
<path d="" fill="#000000" transform="translate(0,0)"/>
<path d="" fill="#000000" transform="translate(0,0)"/>
<path d="" fill="#000000" transform="translate(0,0)"/>
<path d="" fill="#000000" transform="translate(0,0)"/>
<path d="" fill="#000000" transform="translate(0,0)"/>
<path d="" fill="#7F7F7F" transform="translate(0,0)"/>
<path d="" fill="#000000" transform="translate(0,0)"/>
<path d="" fill="#555555" transform="translate(0,0)"/>
<path d="" fill="#000000" transform="translate(0,0)"/>
<path d="" fill="#000000" transform="translate(0,0)"/>
<path d="" fill="#000000" transform="translate(0,0)"/>
<path d="" fill="#7F7F7F" transform="translate(0,0)"/>
<path d="" fill="#000000" transform="translate(0,0)"/>
<path d="" fill="#000000" transform="translate(0,0)"/>
<path d="" fill="#000000" transform="translate(0,0)"/>
<path d="" fill="#000000" transform="translate(0,0)"/>
<path d="" fill="#000000" transform="translate(0,0)"/>
<path d="" fill="#000000" transform="translate(0,0)"/>
<path d="" fill="#000000" transform="translate(0,0)"/>
<path d="" fill="#000000" transform="translate(0,0)"/>
<path d="" fill="#000000" transform="translate(0,0)"/>
<path d="" fill="#000000" transform="translate(0,0)"/>
<path d="" fill="#000000" transform="translate(0,0)"/>
<path d="" fill="#000000" transform="translate(0,0)"/>
<path d="" fill="#7F7F7F" transform="translate(0,0)"/>
<path d="" fill="#000000" transform="translate(0,0)"/>
<path d="" fill="#7F7F7F" transform="translate(0,0)"/>
<path d="" fill="#000000" transform="translate(0,0)"/>
<path d="" fill="#000000" transform="translate(0,0)"/>
<path d="" fill="#000000" transform="translate(0,0)"/>
<path d="" fill="#000000" transform="translate(0,0)"/>
<path d="" fill="#000000" transform="translate(0,0)"/>
<path d="" fill="#7F7F7F" transform="translate(0,0)"/>
<path d="" fill="#000000" transform="translate(0,0)"/>
<path d="" fill="#000000" transform="translate(0,0)"/>
<path d="" fill="#000000" transform="translate(0,0)"/>
<path d="" fill="#000000" transform="translate(0,0)"/>
<path d="" fill="#000000" transform="translate(0,0)"/>
<path d="" fill="#000000" transform="translate(0,0)"/>
<path d="" fill="#000000" transform="translate(0,0)"/>
<path d="" fill="#000000" transform="translate(0,0)"/>
<path d="" fill="#000000" transform="translate(0,0)"/>
<path d="" fill="#000000" transform="translate(0,0)"/>
<path d="" fill="#000000" transform="translate(0,0)"/>
<path d="" fill="#7F7F7F" transform="translate(0,0)"/>
<path d="" fill="#000000" transform="translate(0,0)"/>
<path d="" fill="#000000" transform="translate(0,0)"/>
<path d="" fill="#000000" transform="translate(0,0)"/>
<path d="" fill="#000000" transform="translate(0,0)"/>
<path d="" fill="#000000" transform="translate(0,0)"/>
<path d="" fill="#000000" transform="translate(0,0)"/>
<path d="" fill="#000000" transform="translate(0,0)"/>
<path d="" fill="#000000" transform="translate(0,0)"/>
<path d="" fill="#000000" transform="translate(0,0)"/>
<path d="" fill="#000000" transform="translate(0,0)"/>
<path d="" fill="#3F3F3F" transform="translate(0,0)"/>
<path d="" fill="#000000" transform="translate(0,0)"/>
<path d="" fill="#000000" transform="translate(0,0)"/>
<path d="" fill="#000000" transform="translate(0,0)"/>
<path d="" fill="#000000" transform="translate(0,0)"/>
<path d="" fill="#000000" transform="translate(0,0)"/>
<path d="" fill="#000000" transform="translate(0,0)"/>
<path d="" fill="#000000" transform="translate(0,0)"/>
<path d="" fill="#000000" transform="translate(0,0)"/>
<path d="" fill="#7F7F7F" transform="translate(0,0)"/>
<path d="" fill="#000000" transform="translate(0,0)"/>
<path d="" fill="#555555" transform="translate(0,0)"/>
<path d="" fill="#000000" transform="translate(0,0)"/>
<path d="" fill="#000000" transform="translate(0,0)"/>
<path d="" fill="#000000" transform="translate(0,0)"/>
<path d="" fill="#000000" transform="translate(0,0)"/>
<path d="" fill="#000000" transform="translate(0,0)"/>
<path d="" fill="#3F3F3F" transform="translate(0,0)"/>
<path d="" fill="#000000" transform="translate(0,0)"/>
<path d="" fill="#000000" transform="translate(0,0)"/>
<path d="" fill="#000000" transform="translate(0,0)"/>
<path d="" fill="#000000" transform="translate(0,0)"/>
<path d="" fill="#7F7F7F" transform="translate(0,0)"/>
<path d="" fill="#000000" transform="translate(0,0)"/>
<path d="" fill="#7F7F7F" transform="translate(0,0)"/>
<path d="" fill="#7F7F7F" transform="translate(0,0)"/>
<path d="" fill="#000000" transform="translate(0,0)"/>
<path d="" fill="#000000" transform="translate(0,0)"/>
<path d="" fill="#000000" transform="translate(0,0)"/>
<path d="" fill="#000000" transform="translate(0,0)"/>
<path d="" fill="#000000" transform="translate(0,0)"/>
<path d="" fill="#7F7F7F" transform="translate(0,0)"/>
<path d="" fill="#555555" transform="translate(0,0)"/>
<path d="" fill="#000000" transform="translate(0,0)"/>
<path d="" fill="#000000" transform="translate(0,0)"/>
<path d="" fill="#000000" transform="translate(0,0)"/>
<path d="" fill="#000000" transform="translate(0,0)"/>
<path d="" fill="#000000" transform="translate(0,0)"/>
<path d="" fill="#000000" transform="translate(0,0)"/>
<path d="" fill="#000000" transform="translate(0,0)"/>
<path d="" fill="#000000" transform="translate(0,0)"/>
<path d="" fill="#000000" transform="translate(0,0)"/>
<path d="" fill="#000000" transform="translate(0,0)"/>
<path d="" fill="#7F7F7F" transform="translate(0,0)"/>
<path d="" fill="#000000" transform="translate(0,0)"/>
<path d="" fill="#000000" transform="translate(0,0)"/>
<path d="" fill="#7F7F7F" transform="translate(0,0)"/>
<path d="" fill="#000000" transform="translate(0,0)"/>
<path d="" fill="#000000" transform="translate(0,0)"/>
<path d="" fill="#7F7F7F" transform="translate(0,0)"/>
<path d="" fill="#000000" transform="translate(0,0)"/>
<path d="" fill="#000000" transform="translate(0,0)"/>
<path d="" fill="#000000" transform="translate(0,0)"/>
<path d="" fill="#000000" transform="translate(0,0)"/>
<path d="" fill="#000000" transform="translate(0,0)"/>
<path d="" fill="#000000" transform="translate(0,0)"/>
<path d="" fill="#000000" transform="translate(0,0)"/>
<path d="" fill="#000000" transform="translate(0,0)"/>
<path d="" fill="#000000" transform="translate(0,0)"/>
<path d="" fill="#000000" transform="translate(0,0)"/>
<path d="" fill="#000000" transform="translate(0,0)"/>
<path d="" fill="#000000" transform="translate(0,0)"/>
<path d="" fill="#000000" transform="translate(0,0)"/>
<path d="" fill="#000000" transform="translate(0,0)"/>
<path d="" fill="#000000" transform="translate(0,0)"/>
<path d="" fill="#007F7F" transform="translate(0,0)"/>
<path d="" fill="#000000" transform="translate(0,0)"/>
<path d="" fill="#000000" transform="translate(0,0)"/>
<path d="" fill="#7F7F7F" transform="translate(0,0)"/>
<path d="" fill="#000000" transform="translate(0,0)"/>
<path d="" fill="#000000" transform="translate(0,0)"/>
<path d="" fill="#000000" transform="translate(0,0)"/>
<path d="" fill="#000000" transform="translate(0,0)"/>
<path d="" fill="#000000" transform="translate(0,0)"/>
<path d="" fill="#000000" transform="translate(0,0)"/>
<path d="" fill="#000000" transform="translate(0,0)"/>
<path d="" fill="#000000" transform="translate(0,0)"/>
<path d="" fill="#000000" transform="translate(0,0)"/>
<path d="" fill="#000000" transform="translate(0,0)"/>
<path d="" fill="#000000" transform="translate(0,0)"/>
<path d="" fill="#000000" transform="translate(0,0)"/>
<path d="" fill="#000000" transform="translate(0,0)"/>
<path d="" fill="#000000" transform="translate(0,0)"/>
<path d="" fill="#000000" transform="translate(0,0)"/>
<path d="" fill="#000000" transform="translate(0,0)"/>
<path d="" fill="#000000" transform="translate(0,0)"/>
<path d="" fill="#000000" transform="translate(0,0)"/>
<path d="" fill="#555555" transform="translate(0,0)"/>
<path d="" fill="#000000" transform="translate(0,0)"/>
<path d="" fill="#000000" transform="translate(0,0)"/>
<path d="" fill="#000000" transform="translate(0,0)"/>
<path d="" fill="#000000" transform="translate(0,0)"/>
<path d="" fill="#000000" transform="translate(0,0)"/>
<path d="" fill="#000000" transform="translate(0,0)"/>
<path d="" fill="#000000" transform="translate(0,0)"/>
<path d="" fill="#000000" transform="translate(0,0)"/>
<path d="" fill="#000000" transform="translate(0,0)"/>
<path d="" fill="#7F7F7F" transform="translate(0,0)"/>
<path d="" fill="#000000" transform="translate(0,0)"/>
<path d="" fill="#7F7F7F" transform="translate(0,0)"/>
<path d="" fill="#555555" transform="translate(0,0)"/>
<path d="" fill="#000000" transform="translate(0,0)"/>
<path d="" fill="#000000" transform="translate(0,0)"/>
<path d="" fill="#000000" transform="translate(0,0)"/>
<path d="" fill="#000000" transform="translate(0,0)"/>
<path d="" fill="#000000" transform="translate(0,0)"/>
<path d="" fill="#000000" transform="translate(0,0)"/>
<path d="" fill="#000000" transform="translate(0,0)"/>
<path d="" fill="#000000" transform="translate(0,0)"/>
<path d="" fill="#000000" transform="translate(0,0)"/>
<path d="" fill="#000000" transform="translate(0,0)"/>
<path d="" fill="#7F7F7F" transform="translate(0,0)"/>
<path d="" fill="#000000" transform="translate(0,0)"/>
<path d="" fill="#000000" transform="translate(0,0)"/>
<path d="" fill="#000000" transform="translate(0,0)"/>
<path d="" fill="#000000" transform="translate(0,0)"/>
<path d="" fill="#000000" transform="translate(0,0)"/>
<path d="" fill="#000000" transform="translate(0,0)"/>
<path d="" fill="#000000" transform="translate(0,0)"/>
<path d="" fill="#000000" transform="translate(0,0)"/>
<path d="" fill="#000000" transform="translate(0,0)"/>
<path d="" fill="#000000" transform="translate(0,0)"/>
<path d="" fill="#000000" transform="translate(0,0)"/>
<path d="" fill="#000000" transform="translate(0,0)"/>
<path d="" fill="#7F7F7F" transform="translate(0,0)"/>
<path d="" fill="#000000" transform="translate(0,0)"/>
<path d="" fill="#000000" transform="translate(0,0)"/>
<path d="" fill="#000000" transform="translate(0,0)"/>
<path d="" fill="#000000" transform="translate(0,0)"/>
<path d="" fill="#000000" transform="translate(0,0)"/>
<path d="" fill="#000000" transform="translate(0,0)"/>
<path d="" fill="#000000" transform="translate(0,0)"/>
<path d="" fill="#000000" transform="translate(0,0)"/>
<path d="" fill="#7F7F7F" transform="translate(0,0)"/>
<path d="" fill="#000000" transform="translate(0,0)"/>
<path d="" fill="#000000" transform="translate(0,0)"/>
<path d="" fill="#000000" transform="translate(0,0)"/>
<path d="" fill="#000000" transform="translate(0,0)"/>
<path d="" fill="#000000" transform="translate(0,0)"/>
<path d="" fill="#000000" transform="translate(0,0)"/>
<path d="" fill="#000000" transform="translate(0,0)"/>
<path d="" fill="#000000" transform="translate(0,0)"/>
<path d="" fill="#000000" transform="translate(0,0)"/>
<path d="" fill="#000000" transform="translate(0,0)"/>
<path d="" fill="#000000" transform="translate(0,0)"/>
<path d="" fill="#7F7F7F" transform="translate(0,0)"/>
<path d="" fill="#000000" transform="translate(0,0)"/>
<path d="" fill="#555555" transform="translate(0,0)"/>
<path d="" fill="#000000" transform="translate(0,0)"/>
<path d="" fill="#555555" transform="translate(0,0)"/>
<path d="" fill="#000000" transform="translate(0,0)"/>
<path d="" fill="#000000" transform="translate(0,0)"/>
<path d="" fill="#000000" transform="translate(0,0)"/>
<path d="" fill="#000000" transform="translate(0,0)"/>
<path d="" fill="#000000" transform="translate(0,0)"/>
<path d="" fill="#000000" transform="translate(0,0)"/>
<path d="" fill="#000000" transform="translate(0,0)"/>
<path d="" fill="#000000" transform="translate(0,0)"/>
<path d="" fill="#000000" transform="translate(0,0)"/>
<path d="" fill="#555555" transform="translate(0,0)"/>
<path d="" fill="#000000" transform="translate(0,0)"/>
<path d="" fill="#000000" transform="translate(0,0)"/>
<path d="" fill="#000000" transform="translate(0,0)"/>
<path d="" fill="#000000" transform="translate(0,0)"/>
<path d="" fill="#000000" transform="translate(0,0)"/>
<path d="" fill="#000000" transform="translate(0,0)"/>
<path d="" fill="#000000" transform="translate(0,0)"/>
<path d="" fill="#000000" transform="translate(0,0)"/>
<path d="" fill="#000000" transform="translate(0,0)"/>
<path d="" fill="#000000" transform="translate(0,0)"/>
<path d="" fill="#7F7F7F" transform="translate(0,0)"/>
<path d="" fill="#000000" transform="translate(0,0)"/>
<path d="" fill="#000000" transform="translate(0,0)"/>
<path d="" fill="#000000" transform="translate(0,0)"/>
<path d="" fill="#000000" transform="translate(0,0)"/>
<path d="" fill="#000000" transform="translate(0,0)"/>
<path d="" fill="#000000" transform="translate(0,0)"/>
<path d="" fill="#7F7F7F" transform="translate(0,0)"/>
<path d="" fill="#000000" transform="translate(0,0)"/>
<path d="" fill="#000000" transform="translate(0,0)"/>
<path d="" fill="#000000" transform="translate(0,0)"/>
<path d="" fill="#000000" transform="translate(0,0)"/>
<path d="" fill="#000000" transform="translate(0,0)"/>
<path d="" fill="#000000" transform="translate(0,0)"/>
<path d="" fill="#000000" transform="translate(0,0)"/>
<path d="" fill="#000000" transform="translate(0,0)"/>
<path d="" fill="#000000" transform="translate(0,0)"/>
<path d="" fill="#000000" transform="translate(0,0)"/>
<path d="" fill="#000000" transform="translate(0,0)"/>
<path d="" fill="#000000" transform="translate(0,0)"/>
<path d="" fill="#000000" transform="translate(0,0)"/>
<path d="" fill="#000000" transform="translate(0,0)"/>
<path d="" fill="#000000" transform="translate(0,0)"/>
<path d="" fill="#000000" transform="translate(0,0)"/>
<path d="" fill="#000000" transform="translate(0,0)"/>
<path d="" fill="#000000" transform="translate(0,0)"/>
<path d="" fill="#000000" transform="translate(0,0)"/>
<path d="" fill="#000000" transform="translate(0,0)"/>
<path d="" fill="#000000" transform="translate(0,0)"/>
<path d="" fill="#000000" transform="translate(0,0)"/>
<path d="" fill="#000000" transform="translate(0,0)"/>
<path d="" fill="#000000" transform="translate(0,0)"/>
<path d="" fill="#000000" transform="translate(0,0)"/>
<path d="" fill="#000000" transform="translate(0,0)"/>
<path d="" fill="#7F7F7F" transform="translate(0,0)"/>
<path d="" fill="#333333" transform="translate(0,0)"/>
<path d="" fill="#000000" transform="translate(0,0)"/>
<path d="" fill="#3F3F3F" transform="translate(0,0)"/>
<path d="" fill="#000000" transform="translate(0,0)"/>
<path d="" fill="#000000" transform="translate(0,0)"/>
<path d="" fill="#3F3F3F" transform="translate(0,0)"/>
<path d="" fill="#000000" transform="translate(0,0)"/>
<path d="" fill="#000000" transform="translate(0,0)"/>
<path d="" fill="#000000" transform="translate(0,0)"/>
<path d="" fill="#000000" transform="translate(0,0)"/>
<path d="" fill="#000000" transform="translate(0,0)"/>
<path d="" fill="#000000" transform="translate(0,0)"/>
<path d="" fill="#000000" transform="translate(0,0)"/>
<path d="" fill="#000000" transform="translate(0,0)"/>
<path d="" fill="#000000" transform="translate(0,0)"/>
<path d="" fill="#000000" transform="translate(0,0)"/>
<path d="" fill="#000000" transform="translate(0,0)"/>
<path d="" fill="#000000" transform="translate(0,0)"/>
<path d="" fill="#000000" transform="translate(0,0)"/>
<path d="" fill="#000000" transform="translate(0,0)"/>
<path d="" fill="#3F3F3F" transform="translate(0,0)"/>
<path d="" fill="#000000" transform="translate(0,0)"/>
<path d="" fill="#555555" transform="translate(0,0)"/>
<path d="" fill="#000000" transform="translate(0,0)"/>
<path d="" fill="#000000" transform="translate(0,0)"/>
<path d="" fill="#7F7F7F" transform="translate(0,0)"/>
<path d="" fill="#000000" transform="translate(0,0)"/>
<path d="" fill="#000000" transform="translate(0,0)"/>
<path d="" fill="#000000" transform="translate(0,0)"/>
<path d="" fill="#000000" transform="translate(0,0)"/>
<path d="" fill="#000000" transform="translate(0,0)"/>
<path d="" fill="#000000" transform="translate(0,0)"/>
<path d="" fill="#000000" transform="translate(0,0)"/>
<path d="" fill="#000000" transform="translate(0,0)"/>
<path d="" fill="#000000" transform="translate(0,0)"/>
<path d="" fill="#3F3F3F" transform="translate(0,0)"/>
<path d="" fill="#3F3F3F" transform="translate(0,0)"/>
<path d="" fill="#000000" transform="translate(0,0)"/>
<path d="" fill="#555555" transform="translate(0,0)"/>
<path d="" fill="#000000" transform="translate(0,0)"/>
<path d="" fill="#000000" transform="translate(0,0)"/>
<path d="" fill="#000000" transform="translate(0,0)"/>
<path d="" fill="#000000" transform="translate(0,0)"/>
<path d="" fill="#000000" transform="translate(0,0)"/>
<path d="" fill="#000000" transform="translate(0,0)"/>
<path d="" fill="#555555" transform="translate(0,0)"/>
<path d="" fill="#000000" transform="translate(0,0)"/>
<path d="" fill="#555555" transform="translate(0,0)"/>
<path d="" fill="#3F3F3F" transform="translate(0,0)"/>
<path d="" fill="#000000" transform="translate(0,0)"/>
<path d="" fill="#000000" transform="translate(0,0)"/>
<path d="" fill="#000000" transform="translate(0,0)"/>
<path d="" fill="#000000" transform="translate(0,0)"/>
<path d="" fill="#000000" transform="translate(0,0)"/>
<path d="" fill="#000000" transform="translate(0,0)"/>
<path d="" fill="#000000" transform="translate(0,0)"/>
<path d="" fill="#000000" transform="translate(0,0)"/>
<path d="" fill="#000000" transform="translate(0,0)"/>
<path d="" fill="#000000" transform="translate(0,0)"/>
<path d="" fill="#000000" transform="translate(0,0)"/>
<path d="" fill="#000000" transform="translate(0,0)"/>
<path d="" fill="#3F3F3F" transform="translate(0,0)"/>
<path d="" fill="#000000" transform="translate(0,0)"/>
<path d="" fill="#000000" transform="translate(0,0)"/>
<path d="" fill="#333333" transform="translate(0,0)"/>
<path d="" fill="#000000" transform="translate(0,0)"/>
<path d="" fill="#000000" transform="translate(0,0)"/>
<path d="" fill="#000000" transform="translate(0,0)"/>
<path d="" fill="#000000" transform="translate(0,0)"/>
<path d="" fill="#000000" transform="translate(0,0)"/>
<path d="" fill="#000000" transform="translate(0,0)"/>
<path d="" fill="#000000" transform="translate(0,0)"/>
<path d="" fill="#000000" transform="translate(0,0)"/>
<path d="" fill="#000000" transform="translate(0,0)"/>
<path d="" fill="#555555" transform="translate(0,0)"/>
<path d="" fill="#000000" transform="translate(0,0)"/>
<path d="" fill="#000000" transform="translate(0,0)"/>
<path d="" fill="#555555" transform="translate(0,0)"/>
<path d="" fill="#000000" transform="translate(0,0)"/>
<path d="" fill="#000000" transform="translate(0,0)"/>
<path d="" fill="#555555" transform="translate(0,0)"/>
<path d="" fill="#000000" transform="translate(0,0)"/>
<path d="" fill="#000000" transform="translate(0,0)"/>
<path d="" fill="#000000" transform="translate(0,0)"/>
<path d="" fill="#000000" transform="translate(0,0)"/>
<path d="" fill="#000000" transform="translate(0,0)"/>
<path d="" fill="#000000" transform="translate(0,0)"/>
<path d="" fill="#000000" transform="translate(0,0)"/>
<path d="" fill="#000000" transform="translate(0,0)"/>
<path d="" fill="#000000" transform="translate(0,0)"/>
<path d="" fill="#000000" transform="translate(0,0)"/>
<path d="" fill="#000000" transform="translate(0,0)"/>
<path d="" fill="#555555" transform="translate(0,0)"/>
<path d="" fill="#000000" transform="translate(0,0)"/>
<path d="" fill="#000000" transform="translate(0,0)"/>
<path d="" fill="#000000" transform="translate(0,0)"/>
<path d="" fill="#000000" transform="translate(0,0)"/>
<path d="" fill="#000000" transform="translate(0,0)"/>
<path d="" fill="#000000" transform="translate(0,0)"/>
<path d="" fill="#000000" transform="translate(0,0)"/>
<path d="" fill="#000000" transform="translate(0,0)"/>
<path d="" fill="#000000" transform="translate(0,0)"/>
<path d="" fill="#000000" transform="translate(0,0)"/>
<path d="" fill="#000000" transform="translate(0,0)"/>
<path d="" fill="#000000" transform="translate(0,0)"/>
<path d="" fill="#555555" transform="translate(0,0)"/>
<path d="" fill="#555555" transform="translate(0,0)"/>
<path d="" fill="#000000" transform="translate(0,0)"/>
<path d="" fill="#000000" transform="translate(0,0)"/>
<path d="" fill="#000000" transform="translate(0,0)"/>
<path d="" fill="#000000" transform="translate(0,0)"/>
<path d="" fill="#3F3F3F" transform="translate(0,0)"/>
<path d="" fill="#000000" transform="translate(0,0)"/>
<path d="" fill="#000000" transform="translate(0,0)"/>
<path d="" fill="#3F3F3F" transform="translate(0,0)"/>
<path d="" fill="#000000" transform="translate(0,0)"/>
<path d="" fill="#000000" transform="translate(0,0)"/>
<path d="" fill="#000000" transform="translate(0,0)"/>
<path d="" fill="#000000" transform="translate(0,0)"/>
<path d="" fill="#000000" transform="translate(0,0)"/>
<path d="" fill="#000000" transform="translate(0,0)"/>
<path d="" fill="#000000" transform="translate(0,0)"/>
<path d="" fill="#000000" transform="translate(0,0)"/>
<path d="" fill="#000000" transform="translate(0,0)"/>
<path d="" fill="#000000" transform="translate(0,0)"/>
<path d="" fill="#000000" transform="translate(0,0)"/>
<path d="" fill="#000000" transform="translate(0,0)"/>
<path d="" fill="#000000" transform="translate(0,0)"/>
<path d="" fill="#000000" transform="translate(0,0)"/>
<path d="" fill="#3F3F3F" transform="translate(0,0)"/>
<path d="" fill="#000000" transform="translate(0,0)"/>
<path d="" fill="#000000" transform="translate(0,0)"/>
<path d="" fill="#000000" transform="translate(0,0)"/>
<path d="" fill="#000000" transform="translate(0,0)"/>
<path d="" fill="#000000" transform="translate(0,0)"/>
<path d="" fill="#000000" transform="translate(0,0)"/>
<path d="" fill="#000000" transform="translate(0,0)"/>
<path d="" fill="#000000" transform="translate(0,0)"/>
<path d="" fill="#000000" transform="translate(0,0)"/>
<path d="" fill="#000000" transform="translate(0,0)"/>
<path d="" fill="#000000" transform="translate(0,0)"/>
<path d="" fill="#555555" transform="translate(0,0)"/>
<path d="" fill="#000000" transform="translate(0,0)"/>
<path d="" fill="#000000" transform="translate(0,0)"/>
<path d="" fill="#000000" transform="translate(0,0)"/>
<path d="" fill="#000000" transform="translate(0,0)"/>
<path d="" fill="#000000" transform="translate(0,0)"/>
<path d="" fill="#000000" transform="translate(0,0)"/>
<path d="" fill="#000000" transform="translate(0,0)"/>
<path d="" fill="#000000" transform="translate(0,0)"/>
<path d="" fill="#000000" transform="translate(0,0)"/>
<path d="" fill="#000000" transform="translate(0,0)"/>
<path d="" fill="#000000" transform="translate(0,0)"/>
<path d="" fill="#000000" transform="translate(0,0)"/>
<path d="" fill="#000000" transform="translate(0,0)"/>
<path d="" fill="#000000" transform="translate(0,0)"/>
<path d="" fill="#000000" transform="translate(0,0)"/>
<path d="" fill="#000000" transform="translate(0,0)"/>
<path d="" fill="#000000" transform="translate(0,0)"/>
<path d="" fill="#000000" transform="translate(0,0)"/>
<path d="" fill="#000000" transform="translate(0,0)"/>
<path d="" fill="#000000" transform="translate(0,0)"/>
<path d="" fill="#000000" transform="translate(0,0)"/>
<path d="" fill="#000000" transform="translate(0,0)"/>
<path d="" fill="#000000" transform="translate(0,0)"/>
<path d="" fill="#000000" transform="translate(0,0)"/>
<path d="" fill="#000000" transform="translate(0,0)"/>
<path d="" fill="#000000" transform="translate(0,0)"/>
<path d="" fill="#000000" transform="translate(0,0)"/>
<path d="" fill="#000000" transform="translate(0,0)"/>
<path d="" fill="#000000" transform="translate(0,0)"/>
<path d="" fill="#000000" transform="translate(0,0)"/>
<path d="" fill="#000000" transform="translate(0,0)"/>
<path d="" fill="#000000" transform="translate(0,0)"/>
<path d="" fill="#000000" transform="translate(0,0)"/>
<path d="" fill="#000000" transform="translate(0,0)"/>
<path d="" fill="#000000" transform="translate(0,0)"/>
<path d="" fill="#000000" transform="translate(0,0)"/>
<path d="" fill="#000000" transform="translate(0,0)"/>
<path d="" fill="#000000" transform="translate(0,0)"/>
<path d="" fill="#000000" transform="translate(0,0)"/>
<path d="" fill="#000000" transform="translate(0,0)"/>
<path d="" fill="#000000" transform="translate(0,0)"/>
<path d="" fill="#000000" transform="translate(0,0)"/>
<path d="" fill="#000000" transform="translate(0,0)"/>
<path d="" fill="#000000" transform="translate(0,0)"/>
<path d="" fill="#000000" transform="translate(0,0)"/>
<path d="" fill="#000000" transform="translate(0,0)"/>
<path d="" fill="#000000" transform="translate(0,0)"/>
<path d="" fill="#000000" transform="translate(0,0)"/>
<path d="" fill="#000000" transform="translate(0,0)"/>
<path d="" fill="#000000" transform="translate(0,0)"/>
<path d="" fill="#000000" transform="translate(0,0)"/>
<path d="" fill="#000000" transform="translate(0,0)"/>
<path d="" fill="#000000" transform="translate(0,0)"/>
<path d="" fill="#000000" transform="translate(0,0)"/>
<path d="" fill="#000000" transform="translate(0,0)"/>
<path d="" fill="#000000" transform="translate(0,0)"/>
<path d="" fill="#000000" transform="translate(0,0)"/>
<path d="" fill="#000000" transform="translate(0,0)"/>
<path d="" fill="#000000" transform="translate(0,0)"/>
<path d="" fill="#000000" transform="translate(0,0)"/>
<path d="" fill="#000000" transform="translate(0,0)"/>
<path d="" fill="#000000" transform="translate(0,0)"/>
<path d="" fill="#000000" transform="translate(0,0)"/>
<path d="" fill="#000000" transform="translate(0,0)"/>
<path d="" fill="#000000" transform="translate(0,0)"/>
<path d="" fill="#000000" transform="translate(0,0)"/>
<path d="" fill="#000000" transform="translate(0,0)"/>
<path d="" fill="#000000" transform="translate(0,0)"/>
<path d="" fill="#000000" transform="translate(0,0)"/>
<path d="" fill="#555555" transform="translate(0,0)"/>
<path d="" fill="#000000" transform="translate(0,0)"/>
<path d="" fill="#000000" transform="translate(0,0)"/>
<path d="" fill="#000000" transform="translate(0,0)"/>
<path d="" fill="#000000" transform="translate(0,0)"/>
<path d="" fill="#000000" transform="translate(0,0)"/>
<path d="" fill="#000000" transform="translate(0,0)"/>
<path d="" fill="#000000" transform="translate(0,0)"/>
<path d="" fill="#000000" transform="translate(0,0)"/>
<path d="" fill="#000000" transform="translate(0,0)"/>
<path d="" fill="#000000" transform="translate(0,0)"/>
<path d="" fill="#555555" transform="translate(0,0)"/>
<path d="" fill="#000000" transform="translate(0,0)"/>
<path d="" fill="#000000" transform="translate(0,0)"/>
<path d="" fill="#000000" transform="translate(0,0)"/>
<path d="" fill="#000000" transform="translate(0,0)"/>
<path d="" fill="#000000" transform="translate(0,0)"/>
<path d="" fill="#000000" transform="translate(0,0)"/>
<path d="" fill="#000000" transform="translate(0,0)"/>
<path d="" fill="#000000" transform="translate(0,0)"/>
<path d="" fill="#000000" transform="translate(0,0)"/>
<path d="" fill="#000000" transform="translate(0,0)"/>
<path d="" fill="#000000" transform="translate(0,0)"/>
<path d="" fill="#000000" transform="translate(0,0)"/>
<path d="" fill="#000000" transform="translate(0,0)"/>
<path d="" fill="#000000" transform="translate(0,0)"/>
<path d="" fill="#000000" transform="translate(0,0)"/>
<path d="" fill="#000000" transform="translate(0,0)"/>
<path d="" fill="#000000" transform="translate(0,0)"/>
<path d="" fill="#000000" transform="translate(0,0)"/>
<path d="" fill="#000000" transform="translate(0,0)"/>
<path d="" fill="#000000" transform="translate(0,0)"/>
<path d="" fill="#7F7F7F" transform="translate(0,0)"/>
<path d="" fill="#000000" transform="translate(0,0)"/>
<path d="" fill="#000000" transform="translate(0,0)"/>
<path d="" fill="#000000" transform="translate(0,0)"/>
<path d="" fill="#000000" transform="translate(0,0)"/>
<path d="" fill="#000000" transform="translate(0,0)"/>
<path d="" fill="#000000" transform="translate(0,0)"/>
<path d="" fill="#000000" transform="translate(0,0)"/>
<path d="" fill="#000000" transform="translate(0,0)"/>
<path d="" fill="#000000" transform="translate(0,0)"/>
<path d="" fill="#000000" transform="translate(0,0)"/>
<path d="" fill="#000000" transform="translate(0,0)"/>
<path d="" fill="#000000" transform="translate(0,0)"/>
<path d="" fill="#000000" transform="translate(0,0)"/>
<path d="" fill="#000000" transform="translate(0,0)"/>
<path d="" fill="#000000" transform="translate(0,0)"/>
<path d="" fill="#000000" transform="translate(0,0)"/>
<path d="" fill="#000000" transform="translate(0,0)"/>
<path d="" fill="#000000" transform="translate(0,0)"/>
<path d="" fill="#000000" transform="translate(0,0)"/>
<path d="" fill="#000000" transform="translate(0,0)"/>
<path d="" fill="#000000" transform="translate(0,0)"/>
<path d="" fill="#3F3F3F" transform="translate(0,0)"/>
<path d="" fill="#555555" transform="translate(0,0)"/>
<path d="" fill="#000000" transform="translate(0,0)"/>
<path d="" fill="#555555" transform="translate(0,0)"/>
<path d="" fill="#000000" transform="translate(0,0)"/>
<path d="" fill="#000000" transform="translate(0,0)"/>
<path d="" fill="#000000" transform="translate(0,0)"/>
<path d="" fill="#000000" transform="translate(0,0)"/>
<path d="" fill="#000000" transform="translate(0,0)"/>
<path d="" fill="#000000" transform="translate(0,0)"/>
<path d="" fill="#000000" transform="translate(0,0)"/>
<path d="" fill="#7F7F7F" transform="translate(0,0)"/>
<path d="" fill="#000000" transform="translate(0,0)"/>
<path d="" fill="#2A2A2A" transform="translate(0,0)"/>
<path d="" fill="#000000" transform="translate(0,0)"/>
<path d="" fill="#000000" transform="translate(0,0)"/>
<path d="" fill="#000000" transform="translate(0,0)"/>
<path d="" fill="#000000" transform="translate(0,0)"/>
<path d="" fill="#000000" transform="translate(0,0)"/>
<path d="" fill="#000000" transform="translate(0,0)"/>
<path d="" fill="#000000" transform="translate(0,0)"/>
<path d="" fill="#000000" transform="translate(0,0)"/>
<path d="" fill="#000000" transform="translate(0,0)"/>
<path d="" fill="#555555" transform="translate(0,0)"/>
<path d="" fill="#555555" transform="translate(0,0)"/>
<path d="" fill="#000000" transform="translate(0,0)"/>
<path d="" fill="#000000" transform="translate(0,0)"/>
<path d="" fill="#000000" transform="translate(0,0)"/>
<path d="" fill="#000000" transform="translate(0,0)"/>
<path d="" fill="#000000" transform="translate(0,0)"/>
<path d="" fill="#000000" transform="translate(0,0)"/>
<path d="" fill="#000000" transform="translate(0,0)"/>
<path d="" fill="#000000" transform="translate(0,0)"/>
<path d="" fill="#000000" transform="translate(0,0)"/>
<path d="" fill="#000000" transform="translate(0,0)"/>
<path d="" fill="#555555" transform="translate(0,0)"/>
<path d="" fill="#000000" transform="translate(0,0)"/>
<path d="" fill="#000000" transform="translate(0,0)"/>
<path d="" fill="#000000" transform="translate(0,0)"/>
<path d="" fill="#555555" transform="translate(0,0)"/>
<path d="" fill="#000000" transform="translate(0,0)"/>
<path d="" fill="#000000" transform="translate(0,0)"/>
<path d="" fill="#7F7F7F" transform="translate(0,0)"/>
<path d="" fill="#000000" transform="translate(0,0)"/>
<path d="" fill="#242424" transform="translate(0,0)"/>
<path d="" fill="#000000" transform="translate(0,0)"/>
<path d="" fill="#000000" transform="translate(0,0)"/>
<path d="" fill="#000000" transform="translate(0,0)"/>
<path d="" fill="#000000" transform="translate(0,0)"/>
<path d="" fill="#000000" transform="translate(0,0)"/>
<path d="" fill="#000000" transform="translate(0,0)"/>
<path d="" fill="#000000" transform="translate(0,0)"/>
<path d="" fill="#000000" transform="translate(0,0)"/>
<path d="" fill="#000000" transform="translate(0,0)"/>
<path d="" fill="#000000" transform="translate(0,0)"/>
<path d="" fill="#000000" transform="translate(0,0)"/>
<path d="" fill="#000000" transform="translate(0,0)"/>
<path d="" fill="#000000" transform="translate(0,0)"/>
<path d="" fill="#000000" transform="translate(0,0)"/>
<path d="" fill="#000000" transform="translate(0,0)"/>
<path d="" fill="#000000" transform="translate(0,0)"/>
<path d="" fill="#000000" transform="translate(0,0)"/>
<path d="" fill="#555555" transform="translate(0,0)"/>
<path d="" fill="#000000" transform="translate(0,0)"/>
<path d="" fill="#000000" transform="translate(0,0)"/>
<path d="" fill="#000000" transform="translate(0,0)"/>
<path d="" fill="#000000" transform="translate(0,0)"/>
<path d="" fill="#000000" transform="translate(0,0)"/>
<path d="" fill="#000000" transform="translate(0,0)"/>
<path d="" fill="#7F7F7F" transform="translate(0,0)"/>
<path d="" fill="#7F7F7F" transform="translate(0,0)"/>
<path d="" fill="#333333" transform="translate(0,0)"/>
<path d="" fill="#000000" transform="translate(0,0)"/>
<path d="" fill="#000000" transform="translate(0,0)"/>
<path d="" fill="#000000" transform="translate(0,0)"/>
<path d="" fill="#000000" transform="translate(0,0)"/>
<path d="" fill="#555555" transform="translate(0,0)"/>
<path d="" fill="#555555" transform="translate(0,0)"/>
<path d="" fill="#000000" transform="translate(0,0)"/>
<path d="" fill="#000000" transform="translate(0,0)"/>
<path d="" fill="#000000" transform="translate(0,0)"/>
<path d="" fill="#7F7F7F" transform="translate(0,0)"/>
<path d="" fill="#000000" transform="translate(0,0)"/>
<path d="" fill="#000000" transform="translate(0,0)"/>
<path d="" fill="#000000" transform="translate(0,0)"/>
<path d="" fill="#000000" transform="translate(0,0)"/>
<path d="" fill="#000000" transform="translate(0,0)"/>
<path d="" fill="#000000" transform="translate(0,0)"/>
<path d="" fill="#7F7F7F" transform="translate(0,0)"/>
<path d="" fill="#000000" transform="translate(0,0)"/>
<path d="" fill="#000000" transform="translate(0,0)"/>
<path d="" fill="#000000" transform="translate(0,0)"/>
<path d="" fill="#000000" transform="translate(0,0)"/>
<path d="" fill="#000000" transform="translate(0,0)"/>
<path d="" fill="#555555" transform="translate(0,0)"/>
<path d="" fill="#000000" transform="translate(0,0)"/>
<path d="" fill="#000000" transform="translate(0,0)"/>
<path d="" fill="#000000" transform="translate(0,0)"/>
<path d="" fill="#000000" transform="translate(0,0)"/>
<path d="" fill="#000000" transform="translate(0,0)"/>
<path d="" fill="#000000" transform="translate(0,0)"/>
<path d="" fill="#000000" transform="translate(0,0)"/>
<path d="" fill="#000000" transform="translate(0,0)"/>
<path d="" fill="#000000" transform="translate(0,0)"/>
<path d="" fill="#7F7F7F" transform="translate(0,0)"/>
<path d="" fill="#000000" transform="translate(0,0)"/>
<path d="" fill="#000000" transform="translate(0,0)"/>
<path d="" fill="#000000" transform="translate(0,0)"/>
<path d="" fill="#000000" transform="translate(0,0)"/>
<path d="" fill="#000000" transform="translate(0,0)"/>
<path d="" fill="#000000" transform="translate(0,0)"/>
<path d="" fill="#555555" transform="translate(0,0)"/>
<path d="" fill="#000000" transform="translate(0,0)"/>
<path d="" fill="#000000" transform="translate(0,0)"/>
<path d="" fill="#000000" transform="translate(0,0)"/>
<path d="" fill="#000000" transform="translate(0,0)"/>
<path d="" fill="#000000" transform="translate(0,0)"/>
<path d="" fill="#000000" transform="translate(0,0)"/>
<path d="" fill="#000000" transform="translate(0,0)"/>
<path d="" fill="#555555" transform="translate(0,0)"/>
<path d="" fill="#000000" transform="translate(0,0)"/>
<path d="" fill="#000000" transform="translate(0,0)"/>
<path d="" fill="#000000" transform="translate(0,0)"/>
<path d="" fill="#000000" transform="translate(0,0)"/>
<path d="" fill="#000000" transform="translate(0,0)"/>
<path d="" fill="#000000" transform="translate(0,0)"/>
<path d="" fill="#7F7F7F" transform="translate(0,0)"/>
<path d="" fill="#000000" transform="translate(0,0)"/>
<path d="" fill="#000000" transform="translate(0,0)"/>
<path d="" fill="#000000" transform="translate(0,0)"/>
<path d="" fill="#000000" transform="translate(0,0)"/>
<path d="" fill="#000000" transform="translate(0,0)"/>
<path d="" fill="#000000" transform="translate(0,0)"/>
<path d="" fill="#000000" transform="translate(0,0)"/>
<path d="" fill="#000000" transform="translate(0,0)"/>
<path d="" fill="#000000" transform="translate(0,0)"/>
<path d="" fill="#000000" transform="translate(0,0)"/>
<path d="" fill="#000000" transform="translate(0,0)"/>
<path d="" fill="#000000" transform="translate(0,0)"/>
<path d="" fill="#000000" transform="translate(0,0)"/>
<path d="" fill="#000000" transform="translate(0,0)"/>
<path d="" fill="#000000" transform="translate(0,0)"/>
<path d="" fill="#000000" transform="translate(0,0)"/>
<path d="" fill="#000000" transform="translate(0,0)"/>
<path d="" fill="#000000" transform="translate(0,0)"/>
<path d="" fill="#000000" transform="translate(0,0)"/>
<path d="" fill="#000000" transform="translate(0,0)"/>
<path d="" fill="#000000" transform="translate(0,0)"/>
<path d="" fill="#000000" transform="translate(0,0)"/>
<path d="" fill="#000000" transform="translate(0,0)"/>
<path d="" fill="#3F3F3F" transform="translate(0,0)"/>
<path d="" fill="#000000" transform="translate(0,0)"/>
<path d="" fill="#000000" transform="translate(0,0)"/>
<path d="" fill="#000000" transform="translate(0,0)"/>
<path d="" fill="#000000" transform="translate(0,0)"/>
<path d="" fill="#555555" transform="translate(0,0)"/>
<path d="" fill="#000000" transform="translate(0,0)"/>
<path d="" fill="#000000" transform="translate(0,0)"/>
<path d="" fill="#000000" transform="translate(0,0)"/>
<path d="" fill="#000000" transform="translate(0,0)"/>
<path d="" fill="#000000" transform="translate(0,0)"/>
<path d="" fill="#000000" transform="translate(0,0)"/>
<path d="" fill="#000000" transform="translate(0,0)"/>
<path d="" fill="#000000" transform="translate(0,0)"/>
<path d="" fill="#3F3F3F" transform="translate(0,0)"/>
<path d="" fill="#555555" transform="translate(0,0)"/>
<path d="" fill="#000000" transform="translate(0,0)"/>
<path d="" fill="#000000" transform="translate(0,0)"/>
<path d="" fill="#00007F" transform="translate(0,0)"/>
<path d="" fill="#555555" transform="translate(0,0)"/>
<path d="" fill="#000000" transform="translate(0,0)"/>
<path d="" fill="#000000" transform="translate(0,0)"/>
<path d="" fill="#000000" transform="translate(0,0)"/>
<path d="" fill="#3F3F3F" transform="translate(0,0)"/>
<path d="" fill="#000000" transform="translate(0,0)"/>
<path d="" fill="#000000" transform="translate(0,0)"/>
<path d="" fill="#000000" transform="translate(0,0)"/>
<path d="" fill="#7F7F7F" transform="translate(0,0)"/>
<path d="" fill="#000000" transform="translate(0,0)"/>
<path d="" fill="#7F7F7F" transform="translate(0,0)"/>
<path d="" fill="#000000" transform="translate(0,0)"/>
<path d="" fill="#000000" transform="translate(0,0)"/>
<path d="" fill="#000000" transform="translate(0,0)"/>
<path d="" fill="#000000" transform="translate(0,0)"/>
<path d="" fill="#000000" transform="translate(0,0)"/>
<path d="" fill="#7F7F7F" transform="translate(0,0)"/>
<path d="" fill="#000000" transform="translate(0,0)"/>
<path d="" fill="#000000" transform="translate(0,0)"/>
<path d="" fill="#000000" transform="translate(0,0)"/>
<path d="" fill="#000000" transform="translate(0,0)"/>
<path d="" fill="#000000" transform="translate(0,0)"/>
<path d="" fill="#000000" transform="translate(0,0)"/>
<path d="" fill="#000000" transform="translate(0,0)"/>
<path d="" fill="#000000" transform="translate(0,0)"/>
<path d="" fill="#000000" transform="translate(0,0)"/>
<path d="" fill="#000000" transform="translate(0,0)"/>
<path d="" fill="#000000" transform="translate(0,0)"/>
<path d="" fill="#000000" transform="translate(0,0)"/>
<path d="" fill="#000000" transform="translate(0,0)"/>
<path d="" fill="#000000" transform="translate(0,0)"/>
<path d="" fill="#000000" transform="translate(0,0)"/>
<path d="" fill="#7F7F7F" transform="translate(0,0)"/>
<path d="" fill="#555555" transform="translate(0,0)"/>
<path d="" fill="#000000" transform="translate(0,0)"/>
<path d="" fill="#000000" transform="translate(0,0)"/>
<path d="" fill="#000000" transform="translate(0,0)"/>
<path d="" fill="#000000" transform="translate(0,0)"/>
<path d="" fill="#7F7F7F" transform="translate(0,0)"/>
<path d="" fill="#7F7F7F" transform="translate(0,0)"/>
<path d="" fill="#7F7F7F" transform="translate(0,0)"/>
<path d="" fill="#000000" transform="translate(0,0)"/>
<path d="" fill="#000000" transform="translate(0,0)"/>
<path d="" fill="#000000" transform="translate(0,0)"/>
<path d="" fill="#000000" transform="translate(0,0)"/>
<path d="" fill="#000000" transform="translate(0,0)"/>
<path d="" fill="#000000" transform="translate(0,0)"/>
<path d="" fill="#000000" transform="translate(0,0)"/>
<path d="" fill="#000000" transform="translate(0,0)"/>
<path d="" fill="#7F7F7F" transform="translate(0,0)"/>
<path d="" fill="#7F7F7F" transform="translate(0,0)"/>
<path d="" fill="#000000" transform="translate(0,0)"/>
<path d="" fill="#000000" transform="translate(0,0)"/>
<path d="" fill="#000000" transform="translate(0,0)"/>
<path d="" fill="#000000" transform="translate(0,0)"/>
<path d="" fill="#000000" transform="translate(0,0)"/>
<path d="" fill="#000000" transform="translate(0,0)"/>
<path d="" fill="#555555" transform="translate(0,0)"/>
<path d="" fill="#000000" transform="translate(0,0)"/>
<path d="" fill="#555555" transform="translate(0,0)"/>
<path d="" fill="#000000" transform="translate(0,0)"/>
<path d="" fill="#000000" transform="translate(0,0)"/>
<path d="" fill="#000000" transform="translate(0,0)"/>
<path d="" fill="#000000" transform="translate(0,0)"/>
<path d="" fill="#000000" transform="translate(0,0)"/>
<path d="" fill="#000000" transform="translate(0,0)"/>
<path d="" fill="#555555" transform="translate(0,0)"/>
<path d="" fill="#7F7F7F" transform="translate(0,0)"/>
<path d="" fill="#000000" transform="translate(0,0)"/>
<path d="" fill="#000000" transform="translate(0,0)"/>
<path d="" fill="#000000" transform="translate(0,0)"/>
<path d="" fill="#000000" transform="translate(0,0)"/>
<path d="" fill="#000000" transform="translate(0,0)"/>
<path d="" fill="#000000" transform="translate(0,0)"/>
<path d="" fill="#000000" transform="translate(0,0)"/>
<path d="" fill="#000000" transform="translate(0,0)"/>
<path d="" fill="#7F7F7F" transform="translate(0,0)"/>
<path d="" fill="#000000" transform="translate(0,0)"/>
<path d="" fill="#000000" transform="translate(0,0)"/>
<path d="" fill="#000000" transform="translate(0,0)"/>
<path d="" fill="#000000" transform="translate(0,0)"/>
<path d="" fill="#000000" transform="translate(0,0)"/>
<path d="" fill="#000000" transform="translate(0,0)"/>
<path d="" fill="#000000" transform="translate(0,0)"/>
<path d="" fill="#7F7F7F" transform="translate(0,0)"/>
<path d="" fill="#000000" transform="translate(0,0)"/>
<path d="" fill="#000000" transform="translate(0,0)"/>
<path d="" fill="#000000" transform="translate(0,0)"/>
<path d="" fill="#000000" transform="translate(0,0)"/>
<path d="" fill="#000000" transform="translate(0,0)"/>
<path d="" fill="#7F7F7F" transform="translate(0,0)"/>
<path d="" fill="#7F7F7F" transform="translate(0,0)"/>
<path d="" fill="#000000" transform="translate(0,0)"/>
<path d="" fill="#000000" transform="translate(0,0)"/>
<path d="" fill="#000000" transform="translate(0,0)"/>
<path d="" fill="#000000" transform="translate(0,0)"/>
<path d="" fill="#000000" transform="translate(0,0)"/>
<path d="" fill="#7F7F7F" transform="translate(0,0)"/>
<path d="" fill="#000000" transform="translate(0,0)"/>
<path d="" fill="#000000" transform="translate(0,0)"/>
<path d="" fill="#000000" transform="translate(0,0)"/>
<path d="" fill="#7F7F7F" transform="translate(0,0)"/>
<path d="" fill="#000000" transform="translate(0,0)"/>
<path d="" fill="#000000" transform="translate(0,0)"/>
<path d="" fill="#000000" transform="translate(0,0)"/>
<path d="" fill="#000000" transform="translate(0,0)"/>
<path d="" fill="#000000" transform="translate(0,0)"/>
<path d="" fill="#000000" transform="translate(0,0)"/>
<path d="" fill="#000000" transform="translate(0,0)"/>
<path d="" fill="#7F7F7F" transform="translate(0,0)"/>
<path d="" fill="#000000" transform="translate(0,0)"/>
<path d="" fill="#7F7F7F" transform="translate(0,0)"/>
<path d="" fill="#7F7F7F" transform="translate(0,0)"/>
<path d="" fill="#000000" transform="translate(0,0)"/>
<path d="" fill="#7F7F7F" transform="translate(0,0)"/>
<path d="" fill="#000000" transform="translate(0,0)"/>
<path d="" fill="#000000" transform="translate(0,0)"/>
<path d="" fill="#7F7F7F" transform="translate(0,0)"/>
<path d="" fill="#7F7F7F" transform="translate(0,0)"/>
<path d="" fill="#000000" transform="translate(0,0)"/>
<path d="" fill="#000000" transform="translate(0,0)"/>
<path d="" fill="#7F7F7F" transform="translate(0,0)"/>
<path d="" fill="#000000" transform="translate(0,0)"/>
<path d="" fill="#7F7F7F" transform="translate(0,0)"/>
<path d="" fill="#7F7F7F" transform="translate(0,0)"/>
<path d="" fill="#000000" transform="translate(0,0)"/>
<path d="" fill="#000000" transform="translate(0,0)"/>
<path d="" fill="#000000" transform="translate(0,0)"/>
<path d="" fill="#000000" transform="translate(0,0)"/>
<path d="" fill="#000000" transform="translate(0,0)"/>
<path d="" fill="#000000" transform="translate(0,0)"/>
</svg>

</svg>